<svg width="41" height="30" viewBox="0 0 41 30" fill="none" xmlns="http://www.w3.org/2000/svg">
    <path d="M37.1667 0H3.83333C2 0 0.5 1.5 0.5 3.33333V26.6667C0.5 28.5 2 30 3.83333 30H37.1667C39 30 40.4833 28.5 40.4833 26.6667L40.5 3.33333C40.5 1.5 39 0 37.1667 0ZM37.1667 26.6667H3.83333V3.33333H37.1667V26.6667ZM32.1833 24.9833L35.5 21.6667L32.9833 18.3333H30.25C29.8833 17.2833 29.6667 16.1667 29.6667 15C29.6667 13.8333 29.8833 12.7167 30.25 11.6667H32.9833L35.5 8.33333L32.1833 5.01667C30 6.65 28.3833 8.96667 27.6333 11.6667C27.3333 12.7333 27.1667 13.85 27.1667 15C27.1667 16.15 27.3333 17.2667 27.6333 18.3333C28.3833 21.0167 30 23.35 32.1833 24.9833ZM15.5 15C18.25 15 20.5 12.75 20.5 10C20.5 7.25 18.25 5 15.5 5C12.75 5 10.5 7.25 10.5 10C10.5 12.75 12.75 15 15.5 15ZM15.5 8.33333C16.4167 8.33333 17.1667 9.08333 17.1667 10C17.1667 10.9167 16.4167 11.6667 15.5 11.6667C14.5833 11.6667 13.8333 10.9167 13.8333 10C13.8333 9.08333 14.5833 8.33333 15.5 8.33333ZM25.5 22.65C25.5 18.4833 18.8833 16.6833 15.5 16.6833C12.1167 16.6833 5.5 18.4833 5.5 22.65V25H25.5V22.65ZM9.63333 21.6667C10.8667 20.8333 13.3333 20 15.5 20C17.6667 20 20.1167 20.8167 21.3667 21.6667H9.63333Z" fill="#191C1E"/>
</svg>

