<svg width="35" height="30" viewBox="0 0 35 30" fill="none" xmlns="http://www.w3.org/2000/svg">
    <path d="M11.2315 11.3427H1.19819C0.381519 11.3427 0.0481853 12.3761 0.714852 12.8594L8.89819 18.7094L5.74819 28.8761C5.51485 29.6427 6.39819 30.2761 7.04819 29.7927L15.2649 23.5261L23.4815 29.7761C24.1315 30.2594 25.0149 29.6427 24.7815 28.8594L21.6315 18.6927L29.8149 12.8427C30.4815 12.3761 30.1482 11.3261 29.3315 11.3261H19.2982L16.0482 0.626074C15.8149 -0.157259 14.6982 -0.157259 14.4482 0.626074L11.2315 11.3427ZM31.7649 28.8594L29.4315 21.3261L34.2815 17.8594C34.9482 17.3927 34.6149 16.3427 33.7982 16.3427H30.6649L25.5315 20.0094L27.9649 27.8761L30.4649 29.7761C31.1149 30.2594 31.9982 29.6261 31.7649 28.8594ZM25.2649 8.00941L23.0315 0.642741C22.7982 -0.140592 21.6815 -0.140592 21.4315 0.642741L20.4815 3.75941L21.7815 8.00941H25.2649Z" fill="#191C1E"/>
</svg>
