<svg width="31" height="38" viewBox="0 0 31 38" fill="none" xmlns="http://www.w3.org/2000/svg">
    <path d="M20.5 29H3.83333V9.00002H20.5V10.6667H23.8333V4.00002C23.8333 2.16669 22.3333 0.666687 20.5 0.666687H3.83333C2 0.666687 0.5 2.16669 0.5 4.00002V34C0.5 35.8334 2 37.3334 3.83333 37.3334H20.5C22.3333 37.3334 23.8333 35.8334 23.8333 34V27.3334H20.5V29ZM3.83333 4.00002H20.5V5.66669H3.83333V4.00002ZM20.5 34H3.83333V32.3334H20.5V34Z" fill="#191C1E"/>
    <path d="M26.1333 15.0334L27.1667 17.3334L28.2 15.0334L30.5 14L28.2 12.9667L27.1667 10.6667L26.1333 12.9667L23.8333 14L26.1333 15.0334Z" fill="#191C1E"/>
    <path d="M18.8333 12.3334L16.75 16.9167L12.1667 19L16.75 21.0834L18.8333 25.6667L20.9167 21.0834L25.5 19L20.9167 16.9167L18.8333 12.3334Z" fill="#191C1E"/>
    <path d="M27.1667 20.6667L26.1333 22.9667L23.8333 24L26.1333 25.0334L27.1667 27.3334L28.2 25.0334L30.5 24L28.2 22.9667L27.1667 20.6667Z" fill="#191C1E"/>
</svg>

