<svg width="35" height="36" viewBox="0 0 35 36" fill="none" xmlns="http://www.w3.org/2000/svg">
    <path fill-rule="evenodd" clip-rule="evenodd" d="M30 5.5V0.5H26.6667V5.5H21.6667C21.6833 5.51667 21.6667 8.83333 21.6667 8.83333H26.6667V13.8167C26.6833 13.8333 30 13.8167 30 13.8167V8.83333H35V5.5H30ZM19.1667 5.5H3.75C1.6875 5.5 0 7.1875 0 9.25V31.75C0 33.8125 1.6875 35.5 3.75 35.5H26.25C28.3125 35.5 30 33.8125 30 31.75V16.3333H26.25V31.2437C23.4937 28.1125 19.5 26.125 15 26.125C10.5 26.125 6.50625 28.1125 3.75 31.2437V9.25H19.1667V5.5ZM15 22.375C18.1125 22.375 20.625 19.8625 20.625 16.75C20.625 13.6375 18.1125 11.125 15 11.125C11.8875 11.125 9.375 13.6375 9.375 16.75C9.375 19.8625 11.8875 22.375 15 22.375ZM8.79375 31.75C10.575 30.5688 12.7125 29.875 15 29.875C17.2875 29.875 19.425 30.5688 21.2062 31.75H8.79375ZM16.875 16.75C16.875 15.7188 16.0312 14.875 15 14.875C13.9688 14.875 13.125 15.7188 13.125 16.75C13.125 17.7812 13.9688 18.625 15 18.625C16.0312 18.625 16.875 17.7812 16.875 16.75Z" fill="#191C1E"/>
</svg>