<svg width="24" height="24" viewBox="0 0 24 24" fill="none" xmlns="http://www.w3.org/2000/svg">
<g id="Community nav/analytics/stroke">
<path id="Vector" d="M9 11H10C10 10.4477 9.55228 10 9 10V11ZM9 20V21C9.55228 21 10 20.5523 10 20H9ZM3 20H2C2 20.5523 2.44772 21 3 21V20ZM4 12H9V10H4V12ZM8 11V20H10V11H8ZM9 19H3V21H9V19ZM4 20V12H2V20H4ZM4 10C2.89543 10 2 10.8954 2 12H4V12V10Z" fill="#191C1E"/>
<path id="Vector_2" d="M15 8V7C14.4477 7 14 7.44772 14 8H15ZM21 20V21C21.5523 21 22 20.5523 22 20H21ZM15 20H14C14 20.5523 14.4477 21 15 21V20ZM15 9H20V7H15V9ZM20 9V20H22V9H20ZM21 19H15V21H21V19ZM16 20V8H14V20H16ZM20 9H22C22 7.89543 21.1046 7 20 7V9Z" fill="#191C1E"/>
<path id="Vector_3" d="M15 20V21C15.5523 21 16 20.5523 16 20H15ZM9 20H8C8 20.5523 8.44772 21 9 21V20ZM10 5H14V3H10V5ZM14 5V20H16V5H14ZM15 19H9V21H15V19ZM10 20V5H8V20H10ZM14 5H16C16 3.89543 15.1046 3 14 3V5ZM10 3C8.89543 3 8 3.89543 8 5H10V3Z" fill="#191C1E"/>
</g>
</svg>
