<svg width="20" height="22" viewBox="0 0 20 22" fill="none" xmlns="http://www.w3.org/2000/svg">
<path d="M16.2101 11.6262C16.1995 9.82294 17.0166 8.46385 18.6665 7.46173C17.7437 6.13967 16.3476 5.41253 14.5073 5.27239C12.7648 5.1349 10.8584 6.28774 10.1603 6.28774C9.42262 6.28774 7.73567 5.31999 6.40831 5.31999C3.669 5.36229 0.757812 7.50403 0.757812 11.8616C0.757812 13.1492 0.99314 14.4792 1.46379 15.8489C2.0931 17.6522 4.36176 22.0705 6.72825 21.9991C7.9657 21.9701 8.84091 21.1213 10.4512 21.1213C12.0139 21.1213 12.823 21.9991 14.2032 21.9991C16.5909 21.9648 18.6427 17.9483 19.2403 16.1398C16.0382 14.63 16.2101 11.7188 16.2101 11.6262ZM13.4311 3.56164C14.7717 1.96988 14.6501 0.520893 14.6104 0C13.4258 0.0687473 12.0562 0.806459 11.2762 1.71339C10.4168 2.68643 9.91178 3.88951 10.0202 5.24595C11.3 5.34378 12.4687 4.68539 13.4311 3.56164Z" fill="#FBFCFF"/>
</svg>
