<svg width="41" height="40" viewBox="0 0 41 40" fill="none" xmlns="http://www.w3.org/2000/svg">
    <path d="M24.138 15.8333C24.138 16.75 23.388 17.5 22.4714 17.5H7.47135C6.55469 17.5 5.80469 16.75 5.80469 15.8333C5.80469 14.9167 6.55469 14.1667 7.47135 14.1667H22.4714C23.388 14.1667 24.138 14.9167 24.138 15.8333ZM5.80469 9.16667C5.80469 10.0833 6.55469 10.8333 7.47135 10.8333H22.4714C23.388 10.8333 24.138 10.0833 24.138 9.16667C24.138 8.25 23.388 7.5 22.4714 7.5H7.47135C6.55469 7.5 5.80469 8.25 5.80469 9.16667ZM17.4714 22.5C17.4714 21.5833 16.7214 20.8333 15.8047 20.8333H7.47135C6.55469 20.8333 5.80469 21.5833 5.80469 22.5C5.80469 23.4167 6.55469 24.1667 7.47135 24.1667H15.8047C16.7214 24.1667 17.4714 23.4167 17.4714 22.5ZM30.8214 18.95L32.0047 17.7667C32.6547 17.1167 33.7047 17.1167 34.3547 17.7667L35.538 18.95C36.188 19.6 36.188 20.65 35.538 21.3L34.3547 22.4833L30.8214 18.95ZM29.638 20.1333L21.038 28.7333C20.888 28.8833 20.8047 29.0833 20.8047 29.3167V31.6667C20.8047 32.1333 21.1714 32.5 21.638 32.5H23.988C24.2047 32.5 24.4214 32.4167 24.5714 32.25L33.1714 23.65L29.638 20.1333Z" fill="#191C1E"/>
</svg>