<svg width="16" height="16" viewBox="0 0 16 16" fill="none" xmlns="http://www.w3.org/2000/svg">
<g id="Calendar / Calendar_Event 16">
<path id="Vector" d="M2.66667 5.33333H13.3333" stroke="#191C1E" stroke-width="1.5" stroke-linecap="round" stroke-linejoin="round"/>
<path id="Vector_2" d="M12.6667 2.66667H3.33334C2.96515 2.66667 2.66667 2.96514 2.66667 3.33333V12.6667C2.66667 13.0349 2.96515 13.3333 3.33334 13.3333H12.6667C13.0349 13.3333 13.3333 13.0349 13.3333 12.6667V3.33333C13.3333 2.96514 13.0349 2.66667 12.6667 2.66667Z" stroke="#191C1E" stroke-width="1.5" stroke-linecap="round" stroke-linejoin="round"/>
<path id="Vector_3" d="M7.83333 8H5.49999C5.40795 8 5.33333 8.07462 5.33333 8.16667V10.5C5.33333 10.592 5.40795 10.6667 5.49999 10.6667H7.83333C7.92538 10.6667 7.99999 10.592 7.99999 10.5V8.16667C7.99999 8.07462 7.92538 8 7.83333 8Z" stroke="#191C1E" stroke-width="1.5" stroke-linecap="round" stroke-linejoin="round"/>
<path id="Vector_4" d="M10.6667 1.33333V2.66667" stroke="#191C1E" stroke-width="1.5" stroke-linecap="round" stroke-linejoin="round"/>
<path id="Vector_5" d="M5.33333 1.33333V2.66667" stroke="#191C1E" stroke-width="1.5" stroke-linecap="round" stroke-linejoin="round"/>
</g>
</svg>
