<svg width="14" height="14" viewBox="0 0 14 14" fill="none" xmlns="http://www.w3.org/2000/svg">
    <path d="M10.3359 12.3333H2.33594C1.96927 12.3333 1.66927 12.0333 1.66927 11.6667V3.66667C1.66927 3.3 1.36927 3 1.0026 3C0.635938 3 0.335938 3.3 0.335938 3.66667V12.3333C0.335938 13.0667 0.935938 13.6667 1.66927 13.6667H10.3359C10.7026 13.6667 11.0026 13.3667 11.0026 13C11.0026 12.6333 10.7026 12.3333 10.3359 12.3333ZM12.3359 0.333333H4.33594C3.6026 0.333333 3.0026 0.933333 3.0026 1.66667V9.66667C3.0026 10.4 3.6026 11 4.33594 11H12.3359C13.0693 11 13.6693 10.4 13.6693 9.66667V1.66667C13.6693 0.933333 13.0693 0.333333 12.3359 0.333333ZM12.3359 7L10.6693 6L9.0026 7V1.66667H12.3359V7Z" fill="#FBFCFF"/>
</svg>