<svg width="10" height="13" viewBox="0 0 10 13" fill="none" xmlns="http://www.w3.org/2000/svg">
    <path d="M1.0026 11.5475C1.0026 12.2809 1.6026 12.8809 2.33594 12.8809H7.66927C8.4026 12.8809 9.0026 12.2809 9.0026 11.5475V4.88086C9.0026 4.14753 8.4026 3.54753 7.66927 3.54753H2.33594C1.6026 3.54753 1.0026 4.14753 1.0026 4.88086V11.5475ZM3.0026 4.88086H7.0026C7.36927 4.88086 7.66927 5.18086 7.66927 5.54753V10.8809C7.66927 11.2475 7.36927 11.5475 7.0026 11.5475H3.0026C2.63594 11.5475 2.33594 11.2475 2.33594 10.8809V5.54753C2.33594 5.18086 2.63594 4.88086 3.0026 4.88086ZM7.33594 1.54753L6.8626 1.07419C6.7426 0.954193 6.56927 0.880859 6.39594 0.880859H3.60927C3.43594 0.880859 3.2626 0.954193 3.1426 1.07419L2.66927 1.54753H1.0026C0.635938 1.54753 0.335938 1.84753 0.335938 2.21419C0.335938 2.58086 0.635938 2.88086 1.0026 2.88086H9.0026C9.36927 2.88086 9.66927 2.58086 9.66927 2.21419C9.66927 1.84753 9.36927 1.54753 9.0026 1.54753H7.33594Z" fill="#191C1E"/>
</svg>

