<svg width="32" height="32" viewBox="0 0 32 32" fill="none" xmlns="http://www.w3.org/2000/svg">
    <path d="M25.7032 7.09825C23.9186 6.27939 22.0048 5.67609 20.0039 5.33055C19.9674 5.32388 19.931 5.34055 19.9123 5.37388C19.6661 5.81163 19.3935 6.38271 19.2026 6.83158C17.0505 6.50938 14.9094 6.50938 12.8014 6.83158C12.6104 6.37273 12.3279 5.81163 12.0807 5.37388C12.0619 5.34166 12.0255 5.32499 11.9891 5.33055C9.98923 5.67498 8.07549 6.27828 6.28976 7.09825C6.2743 7.10492 6.26105 7.11604 6.25225 7.13047C2.62229 12.5536 1.62789 17.8434 2.11571 23.0676C2.11792 23.0931 2.13226 23.1176 2.15213 23.1331C4.54708 24.8919 6.86699 25.9596 9.14383 26.6674C9.18027 26.6785 9.21887 26.6652 9.24206 26.6352C9.78065 25.8997 10.2607 25.1241 10.6724 24.3086C10.6967 24.2608 10.6735 24.2042 10.6238 24.1853C9.86232 23.8964 9.1372 23.5442 8.43968 23.1442C8.38451 23.112 8.3801 23.0331 8.43085 22.9953C8.57763 22.8853 8.72446 22.7709 8.86461 22.6553C8.88997 22.6342 8.92531 22.6298 8.95512 22.6431C13.5375 24.7353 18.4985 24.7353 23.0268 22.6431C23.0566 22.6287 23.0919 22.6331 23.1184 22.6542C23.2586 22.7698 23.4054 22.8853 23.5533 22.9953C23.604 23.0331 23.6007 23.112 23.5455 23.1442C22.848 23.552 22.1229 23.8964 21.3603 24.1842C21.3106 24.2031 21.2885 24.2608 21.3128 24.3086C21.7333 25.123 22.2134 25.8985 22.742 26.6341C22.7641 26.6652 22.8038 26.6785 22.8403 26.6674C25.1282 25.9596 27.4481 24.8919 29.843 23.1331C29.864 23.1176 29.8772 23.0942 29.8794 23.0687C30.4633 17.0289 28.9016 11.7825 25.7396 7.13157C25.7319 7.11604 25.7186 7.10492 25.7032 7.09825ZM11.3567 19.8866C9.97708 19.8866 8.84032 18.62 8.84032 17.0645C8.84032 15.509 9.95504 14.2424 11.3567 14.2424C12.7694 14.2424 13.8951 15.5201 13.873 17.0645C13.873 18.62 12.7583 19.8866 11.3567 19.8866ZM20.6605 19.8866C19.281 19.8866 18.1442 18.62 18.1442 17.0645C18.1442 15.509 19.2589 14.2424 20.6605 14.2424C22.0732 14.2424 23.199 15.5201 23.1769 17.0645C23.1769 18.62 22.0732 19.8866 20.6605 19.8866Z" fill="#5865F2"/>
</svg>

