<svg width="28" height="22" viewBox="0 0 28 22" fill="none" xmlns="http://www.w3.org/2000/svg">
<path d="M23.7032 2.09801C21.9186 1.27914 20.0048 0.675843 18.0039 0.330307C17.9674 0.323638 17.931 0.340304 17.9123 0.373636C17.6661 0.811386 17.3935 1.38247 17.2026 1.83134C15.0505 1.50914 12.9094 1.50914 10.8014 1.83134C10.6104 1.37249 10.3279 0.811386 10.0807 0.373636C10.0619 0.341416 10.0255 0.32475 9.98906 0.330307C7.98923 0.674738 6.07549 1.27804 4.28976 2.09801C4.2743 2.10467 4.26105 2.11579 4.25225 2.13023C0.62229 7.55331 -0.372109 12.8431 0.11571 18.0673C0.117917 18.0929 0.132265 18.1173 0.152131 18.1329C2.54708 19.8917 4.86699 20.9594 7.14383 21.6671C7.18026 21.6783 7.21887 21.6649 7.24206 21.6349C7.78065 20.8994 8.26075 20.1239 8.67239 19.3083C8.69668 19.2606 8.67349 19.2039 8.62384 19.185C7.86232 18.8962 7.1372 18.5439 6.43968 18.144C6.38451 18.1118 6.3801 18.0328 6.43085 17.9951C6.57763 17.8851 6.72446 17.7706 6.86461 17.6551C6.88997 17.634 6.92531 17.6295 6.95512 17.6429C11.5375 19.735 16.4985 19.735 21.0268 17.6429C21.0566 17.6284 21.0919 17.6329 21.1184 17.654C21.2586 17.7695 21.4054 17.8851 21.5533 17.9951C21.604 18.0328 21.6007 18.1118 21.5455 18.144C20.848 18.5517 20.1229 18.8962 19.3603 19.1839C19.3106 19.2028 19.2885 19.2606 19.3128 19.3083C19.7333 20.1228 20.2134 20.8983 20.742 21.6338C20.7641 21.6649 20.8038 21.6783 20.8403 21.6671C23.1282 20.9594 25.4481 19.8917 27.843 18.1329C27.864 18.1173 27.8772 18.094 27.8794 18.0684C28.4633 12.0287 26.9016 6.78225 23.7396 2.13133C23.7319 2.11579 23.7186 2.10467 23.7032 2.09801ZM9.35669 14.8863C7.97708 14.8863 6.84032 13.6197 6.84032 12.0642C6.84032 10.5087 7.95504 9.24215 9.35669 9.24215C10.7694 9.24215 11.8951 10.5199 11.873 12.0642C11.873 13.6197 10.7583 14.8863 9.35669 14.8863ZM18.6605 14.8863C17.281 14.8863 16.1442 13.6197 16.1442 12.0642C16.1442 10.5087 17.2589 9.24215 18.6605 9.24215C20.0732 9.24215 21.199 10.5199 21.1769 12.0642C21.1769 13.6197 20.0732 14.8863 18.6605 14.8863Z" fill="#AAABAE"/>
</svg>
