<svg width="40" height="40" viewBox="0 0 40 40" fill="none" xmlns="http://www.w3.org/2000/svg">
<path d="M20 0C8.96 0 0 8.96 0 20C0 31.04 8.96 40 20 40C31.04 40 40 31.04 40 20C40 8.96 31.04 0 20 0ZM16.7071 29.2929C16.3166 29.6834 15.6834 29.6834 15.2929 29.2929L6.70711 20.7071C6.31658 20.3166 6.31658 19.6834 6.70711 19.2929L8.11388 17.8861C8.50402 17.496 9.13642 17.4955 9.52711 17.8851L16 24.34L30.4704 9.86961C30.8619 9.47811 31.497 9.47923 31.8871 9.87211L33.2979 11.2929C33.6861 11.6838 33.6849 12.3151 33.2954 12.7046L16.7071 29.2929Z" fill="#00A578"/>
</svg>
