<svg width="40" height="40" viewBox="0 0 40 40" fill="none" xmlns="http://www.w3.org/2000/svg">
    <mask id="mask0_2571_88806" style="mask-type:alpha" maskUnits="userSpaceOnUse" x="0" y="0" width="40" height="40">
        <rect width="40" height="40" fill="#D9D9D9"/>
    </mask>
    <g mask="url(#mask0_2571_88806)">
        <path d="M16.125 26.958C15.7917 26.958 15.5207 26.854 15.312 26.646C15.104 26.4373 15 26.1663 15 25.833V18.542H13.75C13.4447 18.542 13.1877 18.4377 12.979 18.229C12.771 18.021 12.667 17.764 12.667 17.458C12.667 17.1247 12.771 16.861 12.979 16.667C13.1877 16.4723 13.4587 16.375 13.792 16.375H15.833C16.2223 16.375 16.5487 16.507 16.812 16.771C17.076 17.035 17.208 17.3613 17.208 17.75V25.833C17.208 26.1663 17.104 26.4373 16.896 26.646C16.6873 26.854 16.4303 26.958 16.125 26.958ZM21.042 26.958C20.542 26.958 20.1183 26.7847 19.771 26.438C19.4237 26.0907 19.25 25.667 19.25 25.167V18.125C19.25 17.625 19.4237 17.2083 19.771 16.875C20.1183 16.5417 20.542 16.375 21.042 16.375H24.458C24.958 16.375 25.3747 16.5417 25.708 16.875C26.0413 17.2083 26.208 17.625 26.208 18.125V25.167C26.208 25.667 26.0413 26.0907 25.708 26.438C25.3747 26.7847 24.958 26.958 24.458 26.958H21.042ZM21.458 24.708H24V18.542H21.458V24.708ZM20 36.667C17.9167 36.667 15.9653 36.278 14.146 35.5C12.3267 34.722 10.7363 33.6527 9.375 32.292C8.01367 30.9307 6.94433 29.3403 6.167 27.521C5.389 25.7017 5 23.7503 5 21.667C5 19.5837 5.389 17.6323 6.167 15.813C6.94433 13.993 8.01367 12.4027 9.375 11.042C10.7363 9.68067 12.3267 8.611 14.146 7.833C15.9653 7.05567 17.9167 6.667 20 6.667H20.667L18.583 4.583C18.333 4.333 18.2013 4.02067 18.188 3.646C18.174 3.27067 18.3197 2.94434 18.625 2.667C18.875 2.417 19.1873 2.285 19.562 2.271C19.9373 2.257 20.264 2.389 20.542 2.667L24.875 7.042C25.0417 7.18067 25.1527 7.33334 25.208 7.5C25.264 7.66667 25.292 7.83334 25.292 8C25.292 8.19467 25.264 8.36834 25.208 8.521C25.1527 8.67367 25.0417 8.81934 24.875 8.958L20.5 13.333C20.25 13.583 19.9373 13.708 19.562 13.708C19.1873 13.708 18.875 13.5693 18.625 13.292C18.347 13.042 18.208 12.7293 18.208 12.354C18.208 11.9793 18.347 11.653 18.625 11.375L20.542 9.458H20C16.5833 9.458 13.6943 10.6387 11.333 13C8.97233 15.3613 7.792 18.2503 7.792 21.667C7.792 25.0837 8.97233 27.9723 11.333 30.333C13.6943 32.6943 16.5833 33.875 20 33.875C23.1667 33.875 25.9027 32.8403 28.208 30.771C30.514 28.7017 31.8337 26.1253 32.167 23.042C32.2223 22.6527 32.375 22.326 32.625 22.062C32.875 21.7987 33.2083 21.667 33.625 21.667C34.0137 21.667 34.34 21.8057 34.604 22.083C34.868 22.361 34.986 22.6807 34.958 23.042C34.5973 26.9027 33.0003 30.1387 30.167 32.75C27.3337 35.3613 23.9447 36.667 20 36.667Z" fill="white"/>
    </g>
</svg>

