<svg width="24" height="24" viewBox="0 0 24 24" fill="none" xmlns="http://www.w3.org/2000/svg">
<g id="Community nav/Home/selected">
<g id="Vector">
<path d="M19.6585 9.70119L12.6585 3.57619C12.2815 3.24629 11.7185 3.24629 11.3415 3.57619L4.3415 9.70119C4.12448 9.89108 4 10.1654 4 10.4538V19C4 19.5523 4.44772 20 5 20H9C9.55228 20 10 19.5523 10 19V15C10 14.4477 10.4477 14 11 14H13C13.5523 14 14 14.4477 14 15V19C14 19.5523 14.4477 20 15 20H19C19.5523 20 20 19.5523 20 19V10.4538C20 10.1654 19.8755 9.89108 19.6585 9.70119Z" fill="#191C1E"/>
<path d="M12.6585 3.57619L12 4.32877L12 4.32877L12.6585 3.57619ZM19.6585 9.70119L19 10.4538L19 10.4538L19.6585 9.70119ZM4.3415 9.70119L5 10.4538L5 10.4538L4.3415 9.70119ZM11.3415 3.57619L10.683 2.82361L10.683 2.82361L11.3415 3.57619ZM12 4.32877L19 10.4538L20.317 8.94861L13.317 2.82361L12 4.32877ZM19 10.4538V19H21V10.4538H19ZM5 19V10.4538H3V19H5ZM5 10.4538L12 4.32877L10.683 2.82361L3.68299 8.94861L5 10.4538ZM9 19H5V21H9V19ZM19 19H15V21H19V19ZM9 15V19H11V15H9ZM15 19V15H13V19H15ZM13 13H11V15H13V13ZM15 15C15 13.8954 14.1046 13 13 13V15H15ZM11 15V13C9.89543 13 9 13.8954 9 15H11ZM15 19H13C13 20.1046 13.8954 21 15 21V19ZM9 21C10.1046 21 11 20.1046 11 19H9V21ZM5 10.4538L5 10.4538L3.68299 8.94861C3.24896 9.32839 3 9.87704 3 10.4538H5ZM3 19C3 20.1046 3.89543 21 5 21V19H5H3ZM19 19V21C20.1046 21 21 20.1046 21 19H19ZM19 10.4538L19 10.4538H21C21 9.87704 20.751 9.32839 20.317 8.94861L19 10.4538ZM13.317 2.82361C12.563 2.16382 11.437 2.16382 10.683 2.82361L12 4.32877L12 4.32877L13.317 2.82361Z" fill="#191C1E"/>
</g>
</g>
</svg>
