<svg width="32" height="32" viewBox="0 0 32 32" fill="none" xmlns="http://www.w3.org/2000/svg">
    <path d="M16.0046 1.99902C10.1597 1.99902 8.4503 2.00505 8.11802 2.03263C6.91855 2.13236 6.17217 2.32128 5.35903 2.72625C4.73238 3.03752 4.23817 3.39833 3.75041 3.90412C2.86212 4.82651 2.32376 5.9613 2.12887 7.3102C2.03412 7.96505 2.00656 8.09861 2.00096 11.4435C1.9988 12.5585 2.00096 14.0259 2.00096 15.9941C2.00096 21.836 2.00742 23.5442 2.03541 23.876C2.13232 25.0435 2.31536 25.7781 2.70298 26.5815C3.44376 28.1196 4.85857 29.2742 6.52534 29.705C7.10246 29.8536 7.73988 29.9355 8.55819 29.9743C8.90489 29.9893 12.4387 30.0001 15.9746 30.0001C19.5106 30.0001 23.0465 29.9958 23.3846 29.9786C24.3321 29.934 24.8823 29.8601 25.4907 29.7028C26.3171 29.4908 27.0874 29.1009 27.7476 28.5603C28.4078 28.0197 28.942 27.3415 29.313 26.5729C29.6931 25.7888 29.8859 25.0263 29.9731 23.9197C29.992 23.6784 30 19.8318 30 15.9904C30 12.1483 29.9914 8.30885 29.9724 8.06759C29.8841 6.94314 29.6914 6.18705 29.2991 5.38787C28.9771 4.73367 28.6196 4.24512 28.1007 3.74558C27.1747 2.86067 26.042 2.32214 24.692 2.12741C24.038 2.03284 23.9077 2.00484 20.5612 1.99902H16.0046Z" fill="#AAABAE"/>
    <path d="M16.0046 1.99902C10.1597 1.99902 8.4503 2.00505 8.11802 2.03263C6.91855 2.13236 6.17217 2.32128 5.35903 2.72625C4.73238 3.03752 4.23817 3.39833 3.75041 3.90412C2.86212 4.82651 2.32376 5.9613 2.12887 7.3102C2.03412 7.96505 2.00656 8.09861 2.00096 11.4435C1.9988 12.5585 2.00096 14.0259 2.00096 15.9941C2.00096 21.836 2.00742 23.5442 2.03541 23.876C2.13232 25.0435 2.31536 25.7781 2.70298 26.5815C3.44376 28.1196 4.85857 29.2742 6.52534 29.705C7.10246 29.8536 7.73988 29.9355 8.55819 29.9743C8.90489 29.9893 12.4387 30.0001 15.9746 30.0001C19.5106 30.0001 23.0465 29.9958 23.3846 29.9786C24.3321 29.934 24.8823 29.8601 25.4907 29.7028C26.3171 29.4908 27.0874 29.1009 27.7476 28.5603C28.4078 28.0197 28.942 27.3415 29.313 26.5729C29.6931 25.7888 29.8859 25.0263 29.9731 23.9197C29.992 23.6784 30 19.8318 30 15.9904C30 12.1483 29.9914 8.30885 29.9724 8.06759C29.8841 6.94314 29.6914 6.18705 29.2991 5.38787C28.9771 4.73367 28.6196 4.24512 28.1007 3.74558C27.1747 2.86067 26.042 2.32214 24.692 2.12741C24.038 2.03284 23.9077 2.00484 20.5612 1.99902H16.0046Z" fill="#AAABAE"/>
    <path d="M16.0012 5.66016C13.194 5.66016 12.8417 5.67243 11.7391 5.72263C10.6387 5.77303 9.8876 5.9473 9.23037 6.20299C8.55053 6.46709 7.97384 6.82036 7.3993 7.3953C6.82433 7.97001 6.47117 8.54688 6.2063 9.22672C5.95004 9.88437 5.77561 10.6359 5.72608 11.7363C5.67698 12.8392 5.66406 13.1918 5.66406 15.9999C5.66406 18.808 5.67655 19.1593 5.72651 20.2622C5.77712 21.363 5.95133 22.1144 6.20673 22.7718C6.47096 23.4518 6.82412 24.0287 7.39887 24.6034C7.97319 25.1786 8.54988 25.5327 9.22929 25.7968C9.88695 26.0525 10.6383 26.2268 11.7385 26.2772C12.841 26.3274 13.1931 26.3396 16.0001 26.3396C18.8076 26.3396 19.1588 26.3274 20.2614 26.2772C21.3618 26.2268 22.1137 26.0525 22.7714 25.7968C23.451 25.5327 24.0269 25.1786 24.6012 24.6034C25.1761 24.0287 25.5293 23.4518 25.7942 22.772C26.0483 22.1144 26.2227 21.3628 26.2744 20.2625C26.3239 19.1596 26.3368 18.808 26.3368 15.9999C26.3368 13.1918 26.3239 12.8394 26.2744 11.7365C26.2227 10.6357 26.0483 9.88437 25.7942 9.22694C25.5293 8.54688 25.1761 7.97001 24.6012 7.3953C24.0262 6.82015 23.4512 6.46687 22.7708 6.20299C22.1118 5.9473 21.3603 5.77303 20.2598 5.72263C19.1573 5.67243 18.8063 5.66016 15.9982 5.66016H16.0012ZM15.0739 7.52346C15.3491 7.52303 15.6562 7.52346 16.0012 7.52346C18.7611 7.52346 19.0882 7.53337 20.178 7.58292C21.1858 7.62902 21.7328 7.79747 22.0972 7.93899C22.5795 8.1264 22.9234 8.35043 23.285 8.71232C23.6468 9.07421 23.8707 9.41887 24.0585 9.90139C24.2 10.2654 24.3686 10.8126 24.4145 11.8207C24.464 12.9107 24.4748 13.2381 24.4748 15.9975C24.4748 18.757 24.464 19.0844 24.4145 20.1744C24.3684 21.1825 24.2 21.7296 24.0585 22.0937C23.8712 22.5762 23.6468 22.9198 23.285 23.2815C22.9232 23.6433 22.5797 23.8674 22.0972 24.0548C21.7332 24.197 21.1858 24.365 20.178 24.4111C19.0884 24.4606 18.7611 24.4714 16.0012 24.4714C13.2411 24.4714 12.914 24.4606 11.8244 24.4111C10.8166 24.3645 10.2696 24.1961 9.90504 24.0546C9.42267 23.8672 9.07812 23.6431 8.71634 23.2812C8.35457 22.9193 8.13061 22.5756 7.94283 22.0928C7.80135 21.7288 7.63274 21.1816 7.58687 20.1735C7.53734 19.0835 7.52743 18.7561 7.52743 15.9949C7.52743 13.2338 7.53734 12.9081 7.58687 11.8181C7.63295 10.81 7.80135 10.2629 7.94283 9.89838C8.13018 9.41585 8.35457 9.0712 8.71634 8.7093C9.07812 8.34741 9.42267 8.12339 9.90504 7.93555C10.2694 7.79338 10.8166 7.62535 11.8244 7.57904C12.7779 7.53596 13.1475 7.52303 15.0739 7.52088V7.52346ZM21.5187 9.24029C21.2734 9.24029 21.0336 9.31307 20.8296 9.44943C20.6256 9.58579 20.4666 9.77959 20.3727 10.0063C20.2789 10.2331 20.2543 10.4826 20.3022 10.7233C20.3501 10.964 20.4683 11.1851 20.6418 11.3586C20.8153 11.5321 21.0364 11.6502 21.277 11.698C21.5177 11.7459 21.7671 11.7212 21.9937 11.6273C22.2204 11.5333 22.414 11.3742 22.5503 11.1701C22.6865 10.966 22.7592 10.7261 22.7591 10.4806C22.7591 9.79562 22.2035 9.24029 21.5187 9.24029ZM16.0012 10.69C13.0697 10.69 10.693 13.0675 10.693 15.9999C10.693 18.9323 13.0697 21.3087 16.0012 21.3087C18.9327 21.3087 21.3088 18.9323 21.3088 15.9999C21.3088 13.0675 18.9327 10.69 16.0012 10.69ZM16.0012 12.5533C17.904 12.5533 19.4467 14.0963 19.4467 15.9999C19.4467 17.9033 17.904 19.4465 16.0012 19.4465C14.0982 19.4465 12.5557 17.9033 12.5557 15.9999C12.5557 14.0963 14.0982 12.5533 16.0012 12.5533Z" fill="white"/>
</svg>
