<svg width="48" height="48" viewBox="0 0 48 48" fill="none" xmlns="http://www.w3.org/2000/svg">
<path d="M4 34V32.5C3.17157 32.5 2.5 33.1716 2.5 34H4ZM44 34H45.5C45.5 33.1716 44.8284 32.5 44 32.5V34ZM4 35.5H44V32.5H4V35.5ZM42.5 34V38H45.5V34H42.5ZM42 38.5H6V41.5H42V38.5ZM5.5 38V34H2.5V38H5.5ZM6 38.5C5.72386 38.5 5.5 38.2761 5.5 38H2.5C2.5 39.933 4.067 41.5 6 41.5V38.5ZM42.5 38C42.5 38.2761 42.2761 38.5 42 38.5V41.5C43.933 41.5 45.5 39.933 45.5 38H42.5Z" fill="#AAABAE"/>
<path d="M41.5 14.3998V12.8998H38.5V14.3998H41.5ZM34.7984 11.5H36.2984V8.5H34.7984V11.5ZM38 32.5H10V35.5H38V32.5ZM9.5 32V12H6.5V32H9.5ZM10 32.5C9.72386 32.5 9.5 32.2761 9.5 32H6.5C6.5 33.933 8.067 35.5 10 35.5V32.5ZM38.5 32C38.5 32.2761 38.2761 32.5 38 32.5V35.5C39.933 35.5 41.5 33.933 41.5 32H38.5ZM10 8.5C8.067 8.5 6.5 10.067 6.5 12H9.5C9.5 11.7239 9.72386 11.5 10 11.5V8.5ZM38.5 14.3998V32H41.5V14.3998H38.5ZM10 11.5H34.7984V8.5H10V11.5Z" fill="#AAABAE"/>
<path d="M12.5 27.6001C12.5 25.9432 14.5147 24.6001 17 24.6001C19.4853 24.6001 21.5 25.9432 21.5 27.6001" stroke="#AAABAE" stroke-width="3" stroke-linecap="round" stroke-linejoin="round"/>
<path d="M17 21C18.6569 21 20 19.6569 20 18C20 16.3431 18.6569 15 17 15C15.3431 15 14 16.3431 14 18C14 19.6569 15.3431 21 17 21Z" stroke="#AAABAE" stroke-width="3" stroke-linecap="round" stroke-linejoin="round"/>
<path d="M26.5 27.6001C26.5 25.9432 28.5147 24.6001 31 24.6001C33.4853 24.6001 35.5 25.9432 35.5 27.6001" stroke="#AAABAE" stroke-width="3" stroke-linecap="round" stroke-linejoin="round"/>
<path d="M31 21C32.6569 21 34 19.6569 34 18C34 16.3431 32.6569 15 31 15C29.3431 15 28 16.3431 28 18C28 19.6569 29.3431 21 31 21Z" stroke="#AAABAE" stroke-width="3" stroke-linecap="round" stroke-linejoin="round"/>
<circle cx="39.5969" cy="9.5998" r="4.8" stroke="#AAABAE" stroke-width="3"/>
</svg>
