<svg width="32" height="32" viewBox="0 0 32 32" fill="none" xmlns="http://www.w3.org/2000/svg">
    <rect x="4.39062" y="4.39355" width="23.2138" height="23.2138" fill="white"/>
    <path fill-rule="evenodd" clip-rule="evenodd" d="M4.06947 2C2.92683 2 2 2.89859 2 4.00577V27.995C2 29.1021 2.92683 30 4.06947 30H27.9305C29.0735 30 30 29.1021 30 27.9946V4.00577C30 2.89859 29.0735 2 27.9305 2H4.06947ZM10.4877 12.7966V25.4401H6.25859V12.7966H10.4877ZM10.7663 8.88638C10.7663 10.0997 9.84839 11.0706 8.37389 11.0706H8.37351H8.34616C6.92673 11.0706 6.00914 10.0997 6.00914 8.88638C6.00914 7.64554 6.95444 6.70178 8.40197 6.70178C9.84838 6.70178 10.7386 7.64554 10.7663 8.88638ZM17.0572 25.4401H12.8284C12.8288 25.3655 12.8837 13.9792 12.8288 12.7969H17.0576V14.5868C17.6196 13.7254 18.6257 12.5002 20.8691 12.5002C23.6514 12.5002 25.7375 14.3073 25.7375 18.1907V25.4401H21.5088V18.6769C21.5088 16.977 20.8964 15.8177 19.3665 15.8177C18.198 15.8177 17.5021 16.5995 17.1965 17.3549C17.0849 17.6244 17.0572 18.0027 17.0572 18.3802V25.4401ZM12.8284 25.4404V25.4401C12.8284 25.4403 12.8284 25.4404 12.8284 25.4404Z" fill="#2867B2"/>
</svg>

