<svg width="64" height="64" viewBox="0 0 64 64" fill="none" xmlns="http://www.w3.org/2000/svg">
<rect width="64" height="64" rx="32" fill="#FFDBCB"/>
<mask id="mask0_1794_60631" style="mask-type:alpha" maskUnits="userSpaceOnUse" x="16" y="16" width="32" height="32">
<rect x="16" y="16" width="32" height="32" fill="#D9D9D9"/>
</mask>
<g mask="url(#mask0_1794_60631)">
<path d="M30.6641 38.6667H25.3307C23.4863 38.6667 21.9143 38.0165 20.6147 36.716C19.3143 35.4165 18.6641 33.8445 18.6641 32C18.6641 30.1556 19.3143 28.5832 20.6147 27.2827C21.9143 25.9832 23.4863 25.3334 25.3307 25.3334H30.6641V28H25.3307C24.2196 28 23.2752 28.3889 22.4974 29.1667C21.7196 29.9445 21.3307 30.8889 21.3307 32C21.3307 33.1112 21.7196 34.0556 22.4974 34.8334C23.2752 35.6112 24.2196 36 25.3307 36H30.6641V38.6667ZM26.6641 33.3334V30.6667H37.3307V33.3334H26.6641ZM33.3307 38.6667V36H38.6641C39.7752 36 40.7196 35.6112 41.4974 34.8334C42.2752 34.0556 42.6641 33.1112 42.6641 32C42.6641 30.8889 42.2752 29.9445 41.4974 29.1667C40.7196 28.3889 39.7752 28 38.6641 28H33.3307V25.3334H38.6641C40.5085 25.3334 42.0809 25.9832 43.3814 27.2827C44.681 28.5832 45.3307 30.1556 45.3307 32C45.3307 33.8445 44.681 35.4165 43.3814 36.716C42.0809 38.0165 40.5085 38.6667 38.6641 38.6667H33.3307Z" fill="#A43E00"/>
</g>
</svg>
