<svg width="24" height="24" viewBox="0 0 24 24" fill="none" xmlns="http://www.w3.org/2000/svg">
<g id="Community nav/live sessions/stroke">
<path id="Vector" d="M19 4H5C4.44772 4 4 4.44772 4 5V19C4 19.5523 4.44772 20 5 20H19C19.5523 20 20 19.5523 20 19V5C20 4.44772 19.5523 4 19 4Z" stroke="#191C1E" stroke-width="2" stroke-linecap="round" stroke-linejoin="round"/>
<path id="Vector_2" d="M16 16H16.002V16.002H16V16Z" stroke="#191C1E" stroke-width="2" stroke-linecap="round" stroke-linejoin="round"/>
<path id="Vector_3" d="M12 16H12.002V16.002H12V16Z" stroke="#191C1E" stroke-width="2" stroke-linecap="round" stroke-linejoin="round"/>
<path id="Vector_4" d="M8 16H8.002V16.002H8V16Z" stroke="#191C1E" stroke-width="2" stroke-linecap="round" stroke-linejoin="round"/>
<path id="Vector_5" d="M16 12H16.002V12.002H16V12Z" stroke="#191C1E" stroke-width="2" stroke-linecap="round" stroke-linejoin="round"/>
<path id="Vector_6" d="M12 12H12.002V12.002H12V12Z" stroke="#191C1E" stroke-width="2" stroke-linecap="round" stroke-linejoin="round"/>
<path id="Vector_7" d="M8 12H8.002V12.002H8V12Z" stroke="#191C1E" stroke-width="2" stroke-linecap="round" stroke-linejoin="round"/>
<path id="Vector_8" d="M4 8H20" stroke="#191C1E" stroke-width="2" stroke-linecap="round" stroke-linejoin="round"/>
<path id="Vector_9" d="M16 2V4" stroke="#191C1E" stroke-width="2" stroke-linecap="round" stroke-linejoin="round"/>
<path id="Vector_10" d="M8 2V4" stroke="#191C1E" stroke-width="2" stroke-linecap="round" stroke-linejoin="round"/>
</g>
</svg>
