<svg width="24" height="24" viewBox="0 0 24 24" fill="none" xmlns="http://www.w3.org/2000/svg">
<g id="Community nav/live sessions/selected">
<path id="Vector" d="M5 5H19V3H5V5ZM19 5V19H21V5H19ZM19 19H5V21H19V19ZM5 19V5H3V19H5ZM5 19H3C3 20.1046 3.89543 21 5 21V19ZM19 19V21C20.1046 21 21 20.1046 21 19H19ZM19 5H21C21 3.89543 20.1046 3 19 3V5ZM5 3C3.89543 3 3 3.89543 3 5H5V3Z" fill="#191C1E"/>
<path id="Subtract" fill-rule="evenodd" clip-rule="evenodd" d="M5 8H19V19H5V8ZM15 16C15 15.4477 15.4477 15 16 15H16.002C16.5543 15 17.002 15.4477 17.002 16V16.002C17.002 16.5543 16.5543 17.002 16.002 17.002H16C15.4477 17.002 15 16.5543 15 16.002V16ZM12 15C11.4477 15 11 15.4477 11 16V16.002C11 16.5543 11.4477 17.002 12 17.002H12.002C12.5543 17.002 13.002 16.5543 13.002 16.002V16C13.002 15.4477 12.5543 15 12.002 15H12ZM7 16C7 15.4477 7.44772 15 8 15H8.002C8.55428 15 9.002 15.4477 9.002 16V16.002C9.002 16.5543 8.55428 17.002 8.002 17.002H8C7.44772 17.002 7 16.5543 7 16.002V16ZM16 11C15.4477 11 15 11.4477 15 12V12.002C15 12.5543 15.4477 13.002 16 13.002H16.002C16.5543 13.002 17.002 12.5543 17.002 12.002V12C17.002 11.4477 16.5543 11 16.002 11H16ZM11 12C11 11.4477 11.4477 11 12 11H12.002C12.5543 11 13.002 11.4477 13.002 12V12.002C13.002 12.5543 12.5543 13.002 12.002 13.002H12C11.4477 13.002 11 12.5543 11 12.002V12ZM8 11C7.44772 11 7 11.4477 7 12V12.002C7 12.5543 7.44772 13.002 8 13.002H8.002C8.55428 13.002 9.002 12.5543 9.002 12.002V12C9.002 11.4477 8.55428 11 8.002 11H8Z" fill="#191C1E"/>
<path id="Vector_2" d="M4 7C3.44772 7 3 7.44772 3 8C3 8.55228 3.44772 9 4 9V7ZM20 9C20.5523 9 21 8.55228 21 8C21 7.44772 20.5523 7 20 7V9ZM4 9H20V7H4V9Z" fill="#191C1E"/>
<path id="Vector_3" d="M17 2C17 1.44772 16.5523 1 16 1C15.4477 1 15 1.44772 15 2H17ZM15 4C15 4.55228 15.4477 5 16 5C16.5523 5 17 4.55228 17 4H15ZM15 2V4H17V2H15Z" fill="#191C1E"/>
<path id="Vector_4" d="M9 2C9 1.44772 8.55228 1 8 1C7.44772 1 7 1.44772 7 2H9ZM7 4C7 4.55228 7.44772 5 8 5C8.55228 5 9 4.55228 9 4H7ZM7 2V4H9V2H7Z" fill="#191C1E"/>
</g>
</svg>
