<svg width="56" height="56" viewBox="0 0 56 56" fill="none" xmlns="http://www.w3.org/2000/svg">
<g clip-path="url(#clip0_876_25935)">
<path d="M4.66735 32.6667C2.09002 30.0894 2.09001 25.9107 4.66733 23.3334C7.24465 20.7561 11.4233 20.7561 14.0006 23.3334L32.6673 42.0001C35.2446 44.5774 35.2446 48.7561 32.6673 51.3334C30.09 53.9107 25.9113 53.9107 23.334 51.3334L4.66735 32.6667Z" fill="#FBFCFF"/>
<path d="M32.666 51.3333C30.0887 53.9106 25.91 53.9106 23.3327 51.3333C20.7553 48.756 20.7554 44.5773 23.3327 42L41.9994 23.3333C44.5767 20.756 48.7554 20.756 51.3327 23.3333C53.91 25.9106 53.91 30.0893 51.3327 32.6666L32.666 51.3333Z" fill="#FBFCFF"/>
<path d="M27.9832 17.4231C31.9683 17.4231 35.1988 14.1925 35.1988 10.2075C35.1988 6.22237 31.9683 2.99182 27.9832 2.99182C23.9981 2.99182 20.7676 6.22237 20.7676 10.2075C20.7676 14.1925 23.9981 17.4231 27.9832 17.4231Z" fill="#FBC91B"/>
</g>
<defs>
<clipPath id="clip0_876_25935">
<rect width="56" height="56" fill="white"/>
</clipPath>
</defs>
</svg>
