<svg width="120" height="120" viewBox="0 0 120 120" fill="none" xmlns="http://www.w3.org/2000/svg">
<path d="M105 50.0005H108.75C108.75 48.8619 108.233 47.7849 107.344 47.0732L105 50.0005ZM15 50.0005L12.7382 47.0094C11.8009 47.7182 11.25 48.8254 11.25 50.0005H15ZM58.1822 17.3473L60.444 20.3384L60.444 20.3384L58.1822 17.3473ZM64.323 17.4324L66.6668 14.505L66.6668 14.505L64.323 17.4324ZM101.25 50.0005V100.001H108.75V50.0005H101.25ZM100 101.251H20V108.751H100V101.251ZM18.75 100.001V50.0005H11.25V100.001H18.75ZM17.2618 52.9916L60.444 20.3384L55.9204 14.3562L12.7382 47.0094L17.2618 52.9916ZM61.9792 20.3597L102.656 52.9279L107.344 47.0732L66.6668 14.505L61.9792 20.3597ZM60.444 20.3384C60.9003 19.9934 61.5327 20.0021 61.9792 20.3597L66.6668 14.505C63.5408 12.0022 59.1146 11.9409 55.9204 14.3562L60.444 20.3384ZM20 101.251C19.3096 101.251 18.75 100.691 18.75 100.001H11.25C11.25 104.833 15.1675 108.751 20 108.751V101.251ZM101.25 100.001C101.25 100.691 100.69 101.251 100 101.251V108.751C104.832 108.751 108.75 104.833 108.75 100.001H101.25Z" fill="#FFEFC8"/>
<path d="M15 50L61.2857 80L105 50" stroke="#FFEFC8" stroke-width="7.5" stroke-linecap="round" stroke-linejoin="round"/>
</svg>
