<svg width="41" height="43" viewBox="0 0 41 43" fill="none" xmlns="http://www.w3.org/2000/svg">
    <path d="M20 0.996002C31.048 0.996002 40.004 9.952 40.004 21C40.004 21.782 39.958 22.554 39.87 23.314C39.035 22.4579 38.0663 21.7433 37.002 21.198V21C37.002 19.622 36.84 18.282 36.53 17H29.814C29.914 18.036 29.974 19.1 29.994 20.182C28.9527 20.3738 27.9448 20.7161 27.002 21.198V21C27.002 19.618 26.93 18.28 26.794 16.998H13.206C12.8542 20.3286 12.945 23.6912 13.476 26.998H21.75C21.3748 27.9597 21.1378 28.9698 21.046 29.998H14.12C15.424 34.828 17.692 38.002 20 38.002C20.908 38.002 21.812 37.508 22.652 36.614C23.374 37.846 24.316 39.058 25.45 40.25C23.716 40.74 21.888 41.002 19.998 41.002C8.952 41.002 3.34981e-07 32.046 3.34981e-07 21C-0.00199967 9.952 8.952 0.996002 20 0.996002ZM11.016 30H5.572C7.50332 33.0891 10.3726 35.479 13.76 36.82C12.716 35.18 11.854 33.128 11.22 30.79L11.016 30V30ZM10.188 16.998H3.472L3.462 17.032C3.15301 18.332 2.99795 19.6638 3 21C2.99719 23.0493 3.36582 25.0822 4.088 27H10.434C10.1412 25.0135 9.99609 23.008 10 21C10 19.632 10.064 18.292 10.19 16.998H10.188ZM13.762 5.178L13.716 5.194C9.62171 6.82849 6.31899 9.98428 4.5 14H10.596C11.224 10.496 12.316 7.444 13.762 5.18V5.178ZM20.002 3.996L19.768 4.006C17.24 4.24 14.794 8.242 13.66 14H26.344C25.212 8.26 22.778 4.262 20.254 4.01L20 3.996H20.002ZM26.242 5.176L26.454 5.526C27.794 7.75 28.808 10.67 29.404 14H35.5C33.7637 10.1682 30.6733 7.11266 26.822 5.42L26.242 5.178V5.176ZM41 31C41 28.6131 40.0518 26.3239 38.364 24.636C36.6761 22.9482 34.3869 22 32 22C29.6131 22 27.3239 22.9482 25.636 24.636C23.9482 26.3239 23 28.6131 23 31C23 34.726 25.838 38.63 31.4 42.8C31.5731 42.9298 31.7836 43 32 43C32.2164 43 32.4269 42.9298 32.6 42.8C38.16 38.63 41 34.726 41 31ZM29 31C28.9897 30.5997 29.0596 30.2013 29.2057 29.8284C29.3517 29.4555 29.571 29.1156 29.8505 28.8288C30.13 28.542 30.4641 28.314 30.8331 28.1584C31.2021 28.0027 31.5985 27.9225 31.999 27.9225C32.3995 27.9225 32.7959 28.0027 33.1649 28.1584C33.5339 28.314 33.868 28.542 34.1475 28.8288C34.427 29.1156 34.6463 29.4555 34.7924 29.8284C34.9384 30.2013 35.0083 30.5997 34.998 31C34.998 31.7957 34.6819 32.5587 34.1193 33.1213C33.5567 33.6839 32.7937 34 31.998 34C31.2024 34 30.4393 33.6839 29.8767 33.1213C29.3141 32.5587 28.998 31.7957 28.998 31H29Z" fill="#AAABAE"/>
</svg>

