<svg width="64" height="64" viewBox="0 0 64 64" fill="none" xmlns="http://www.w3.org/2000/svg">
<rect x="0.5" y="0.5" width="63" height="63" rx="31.5" fill="#FBFCFF"/>
<g clip-path="url(#clip0_2458_70967)">
<path d="M18.6693 34.6667C17.1965 33.1939 17.1965 30.8061 18.6693 29.3334C20.142 27.8606 22.5298 27.8606 24.0026 29.3334L34.6693 40C36.142 41.4728 36.142 43.8606 34.6693 45.3334C33.1965 46.8061 30.8087 46.8061 29.3359 45.3333L18.6693 34.6667Z" fill="#2C2C2C"/>
<path d="M34.664 45.3333C33.1913 46.8061 30.8035 46.8061 29.3307 45.3333C27.858 43.8606 27.858 41.4727 29.3307 40L39.9974 29.3333C41.4701 27.8606 43.858 27.8606 45.3307 29.3333C46.8035 30.8061 46.8035 33.1939 45.3307 34.6666L34.664 45.3333Z" fill="#2C2C2C"/>
<path d="M31.9904 25.956C34.2676 25.956 36.1136 24.11 36.1136 21.8328C36.1136 19.5556 34.2676 17.7096 31.9904 17.7096C29.7132 17.7096 27.8672 19.5556 27.8672 21.8328C27.8672 24.11 29.7132 25.956 31.9904 25.956Z" fill="#FBC91B"/>
</g>
<rect x="0.5" y="0.5" width="63" height="63" rx="31.5" stroke="#E1E2E5"/>
<defs>
<clipPath id="clip0_2458_70967">
<rect width="32" height="32" fill="white" transform="translate(16 16)"/>
</clipPath>
</defs>
</svg>
