<svg width="21" height="20" viewBox="0 0 21 20" fill="none" xmlns="http://www.w3.org/2000/svg">
<path d="M13 14.1665H8V14.9998C8 16.3805 9.11929 17.4998 10.5 17.4998C11.8807 17.4998 13 16.3805 13 14.9998V14.1665Z" fill="#191C1E"/>
<path d="M8 14.1665V13.1665C7.44772 13.1665 7 13.6142 7 14.1665H8ZM13 14.1665H14C14 13.6142 13.5523 13.1665 13 13.1665V14.1665ZM8 15.1665H13V13.1665H8V15.1665ZM12 14.1665V14.9998H14V14.1665H12ZM9 14.9998V14.1665H7V14.9998H9ZM10.5 16.4998C9.67157 16.4998 9 15.8283 9 14.9998H7C7 16.9328 8.567 18.4998 10.5 18.4998V16.4998ZM12 14.9998C12 15.8283 11.3284 16.4998 10.5 16.4998V18.4998C12.433 18.4998 14 16.9328 14 14.9998H12Z" fill="#191C1E"/>
<path d="M4.07611 12.2559L3.369 11.5488H3.369L4.07611 12.2559ZM4.5018 11.8302L5.2089 12.5374L5.2089 12.5374L4.5018 11.8302ZM16.4956 11.8302L17.2027 11.1231L17.2027 11.1231L16.4956 11.8302ZM16.9213 12.2559L17.6284 11.5488L17.6284 11.5488L16.9213 12.2559ZM10.4987 2.5L10.4987 3.5L10.4987 2.5ZM16.332 13.1667H4.66536V15.1667H16.332V13.1667ZM4.83203 13.3333V12.8452H2.83203V13.3333H4.83203ZM4.78322 12.963L5.2089 12.5374L3.79469 11.1231L3.369 11.5488L4.78322 12.963ZM5.66536 11.4354V8.33333H3.66536V11.4354H5.66536ZM15.332 8.33333V11.4353H17.332V8.33333H15.332ZM15.7885 12.5373L16.2142 12.963L17.6284 11.5488L17.2027 11.1231L15.7885 12.5373ZM16.1654 12.8452V13.3333H18.1654V12.8452H16.1654ZM16.2142 12.963C16.1829 12.9318 16.1654 12.8894 16.1654 12.8452H18.1654C18.1654 12.359 17.9722 11.8927 17.6284 11.5488L16.2142 12.963ZM15.332 11.4353C15.332 11.8487 15.4962 12.245 15.7885 12.5373L17.2027 11.1231C17.2855 11.2059 17.332 11.3182 17.332 11.4353H15.332ZM17.332 8.33333C17.332 4.55938 14.2726 1.49999 10.4987 1.5L10.4987 3.5C13.1681 3.49999 15.332 5.66395 15.332 8.33333H17.332ZM5.66536 8.33333C5.66536 5.66396 7.82931 3.50001 10.4987 3.5L10.4987 1.5C6.72474 1.50001 3.66536 4.55939 3.66536 8.33333H5.66536ZM5.2089 12.5374C5.50117 12.2451 5.66536 11.8487 5.66536 11.4354H3.66536C3.66536 11.3183 3.71188 11.2059 3.79469 11.1231L5.2089 12.5374ZM4.83203 12.8452C4.83203 12.8894 4.81447 12.9318 4.78322 12.963L3.369 11.5488C3.02519 11.8926 2.83203 12.359 2.83203 12.8452H4.83203ZM4.66536 13.1667C4.75741 13.1667 4.83203 13.2413 4.83203 13.3333H2.83203C2.83203 14.3459 3.65284 15.1667 4.66536 15.1667V13.1667ZM16.332 15.1667C17.3446 15.1667 18.1654 14.3459 18.1654 13.3333H16.1654C16.1654 13.2413 16.24 13.1667 16.332 13.1667V15.1667Z" fill="#191C1E"/>
<path d="M15.5156 1.67822C16.665 2.54432 17.5704 3.6933 18.1438 5.01328" stroke="#191C1E" stroke-width="2" stroke-linecap="round" stroke-linejoin="round"/>
<path d="M5.48367 1.67822C4.33432 2.54432 3.42886 3.6933 2.85547 5.01328" stroke="#191C1E" stroke-width="2" stroke-linecap="round" stroke-linejoin="round"/>
</svg>
