<svg width="32" height="32" viewBox="0 0 32 32" fill="none" xmlns="http://www.w3.org/2000/svg">
    <path d="M30.0034 15.9997C30.0034 23.7322 23.7342 30.0014 16.0017 30.0014C8.26921 30.0014 2 23.7322 2 15.9997C2 8.26726 8.26921 1.99805 16.0017 1.99805C23.7358 1.99805 30.0034 8.26726 30.0034 15.9997Z" fill="#2081E2"/>
    <path d="M8.9028 16.4708L8.96323 16.3759L12.6056 10.6778C12.6588 10.5944 12.784 10.603 12.8243 10.6936C13.4328 12.0574 13.9578 13.7534 13.7119 14.8093C13.6068 15.2437 13.3192 15.8321 12.9955 16.3759C12.9537 16.455 12.9077 16.5327 12.8588 16.6075C12.8358 16.642 12.797 16.6622 12.7552 16.6622H9.00925C8.90856 16.6622 8.8496 16.5528 8.9028 16.4708Z" fill="white"/>
    <path d="M25.1453 17.5289V18.4309C25.1453 18.4826 25.1137 18.5287 25.0677 18.5488C24.7857 18.6697 23.8204 19.1128 23.4191 19.6709C22.3948 21.0965 21.6123 23.1349 19.863 23.1349H12.5653C9.97877 23.1349 7.88281 21.0318 7.88281 18.4366V18.3532C7.88281 18.2841 7.93891 18.228 8.00799 18.228H12.0762C12.1567 18.228 12.2157 18.3028 12.2085 18.382C12.1797 18.6467 12.2287 18.9171 12.3538 19.1631C12.5955 19.6536 13.0961 19.96 13.637 19.96H15.6509V18.3877H13.66C13.5579 18.3877 13.4975 18.2698 13.5565 18.1863C13.578 18.1532 13.6025 18.1187 13.6284 18.0799C13.8168 17.8123 14.0858 17.3965 14.3534 16.9233C14.5361 16.6039 14.713 16.263 14.8554 15.9206C14.8842 15.8588 14.9072 15.7955 14.9302 15.7336C14.9691 15.6243 15.0094 15.5221 15.0381 15.42C15.0669 15.3337 15.0899 15.2431 15.1129 15.1582C15.1806 14.8676 15.2093 14.5597 15.2093 14.2404C15.2093 14.1152 15.2036 13.9843 15.1921 13.8592C15.1863 13.7225 15.169 13.5858 15.1518 13.4492C15.1403 13.3283 15.1187 13.209 15.0957 13.0838C15.0669 12.9011 15.0266 12.7199 14.9806 12.5372L14.9648 12.4681C14.9302 12.343 14.9015 12.2235 14.8612 12.0984C14.7476 11.7057 14.6166 11.323 14.4785 10.9648C14.4282 10.8224 14.3706 10.6858 14.3131 10.5491C14.2282 10.3434 14.1419 10.1564 14.0628 9.97942C14.0225 9.89886 13.988 9.82549 13.9535 9.75069C13.9146 9.66581 13.8744 9.58096 13.8341 9.50037C13.8053 9.43852 13.7722 9.38099 13.7492 9.32345L13.5032 8.86887C13.4687 8.80701 13.5262 8.73364 13.5938 8.75234L15.1331 9.16953H15.1374C15.1403 9.16953 15.1432 9.17096 15.1432 9.17096L15.346 9.22706L15.569 9.29035L15.6509 9.31337V8.39847C15.6509 7.95683 16.0048 7.59863 16.4422 7.59863C16.6608 7.59863 16.8593 7.68781 17.0017 7.83311C17.1442 7.97842 17.2334 8.17693 17.2334 8.39847V9.75645L17.3973 9.80247C17.4103 9.80679 17.4233 9.81255 17.4348 9.82117C17.475 9.85138 17.5326 9.896 17.6059 9.95064C17.6635 9.99669 17.7253 10.0528 17.8001 10.1103C17.9483 10.2297 18.1252 10.3837 18.3195 10.5606C18.3712 10.6052 18.4216 10.6512 18.4676 10.6973C18.7179 10.9303 18.9984 11.2036 19.266 11.5057C19.3408 11.5906 19.4142 11.6769 19.489 11.7675C19.5638 11.8596 19.6429 11.9502 19.712 12.0409C19.8026 12.1617 19.9004 12.2868 19.9853 12.4178C20.0256 12.4796 20.0716 12.5429 20.1105 12.6048C20.2198 12.7702 20.3162 12.9414 20.4082 13.1126C20.4471 13.1917 20.4873 13.278 20.5219 13.3629C20.624 13.5916 20.7046 13.8247 20.7563 14.0577C20.7722 14.1081 20.7837 14.1627 20.7894 14.2116V14.2231C20.8067 14.2922 20.8124 14.3656 20.8182 14.4404C20.8412 14.6791 20.8297 14.9179 20.7779 15.1582C20.7563 15.2603 20.7276 15.3567 20.6931 15.4588C20.6585 15.5567 20.624 15.6588 20.5794 15.7552C20.4931 15.9551 20.391 16.1551 20.2701 16.3421C20.2313 16.4111 20.1853 16.4845 20.1392 16.5536C20.0889 16.6269 20.0371 16.696 19.991 16.7636C19.9278 16.8499 19.8601 16.9405 19.7911 17.0211C19.7292 17.106 19.6659 17.1908 19.5969 17.2656C19.5005 17.3793 19.4084 17.4872 19.312 17.5908C19.2545 17.6584 19.1927 17.7274 19.1293 17.7893C19.0675 17.8583 19.0042 17.9202 18.9467 17.9777C18.8503 18.0741 18.7697 18.1489 18.7021 18.2108L18.5439 18.3561C18.5209 18.3762 18.4906 18.3877 18.459 18.3877H17.2334V19.96H18.7755C19.1207 19.96 19.4487 19.8378 19.7134 19.6134C19.804 19.5342 20.1996 19.1918 20.6672 18.6754C20.683 18.6582 20.7031 18.6452 20.7261 18.6395L24.9857 17.4081C25.0648 17.385 25.1453 17.4455 25.1453 17.5289Z" fill="white"/>
</svg>
