<svg width="36" height="44" viewBox="0 0 36 44" fill="none" xmlns="http://www.w3.org/2000/svg">
<path d="M24.4122 13.5239C25.385 9.44797 22.5597 5.78909 18.8078 5.32584V1.66704H20.0584C20.5217 1.66704 20.8919 1.29648 20.8919 0.833523C20.8919 0.37023 20.5214 0 20.0584 0H15.8436C15.3803 0 15.01 0.370569 15.01 0.833523C15.01 1.29681 15.3806 1.66704 15.8436 1.66704H17.0942V5.32584C13.8056 5.74261 11.3047 8.52173 11.3047 11.9027C11.3047 16.0248 15.1028 19.3134 19.41 18.3868C21.8647 17.8776 23.8565 15.9324 24.4121 13.5239H24.4122ZM22.8375 11.023C22.8837 11.3008 22.9303 11.6252 22.9303 11.9492C22.9303 12.2736 22.8841 12.5514 22.8375 12.8754H20.7068C20.7068 12.5511 20.753 12.2732 20.753 11.9492C20.753 11.6248 20.753 11.347 20.7068 11.023H22.8375ZM22.2353 9.35558H20.568C20.4752 8.66098 20.2901 8.01259 20.1047 7.45655C20.9847 7.87332 21.7259 8.52173 22.2354 9.35558H22.2353ZM20.568 14.4967H22.2353C21.7258 15.3302 20.9847 15.9789 20.1512 16.3957C20.2901 15.8397 20.4752 15.1913 20.568 14.4967H20.568ZM17.9281 6.94707C18.1598 7.08599 18.6227 7.87331 18.9009 9.35558H17.0946C17.3259 7.87331 17.7427 7.08602 17.9281 6.94707ZM13.1111 12.8293C13.0649 12.5514 13.0184 12.2271 13.0184 11.903C13.0184 11.5787 13.0646 11.3008 13.1111 10.9768H15.2418C15.2418 11.3012 15.1956 11.579 15.1956 11.903C15.1956 12.2274 15.1956 12.5053 15.2418 12.8293H13.1111ZM13.7133 14.4967H15.3807C15.4734 15.1913 15.6585 15.8397 15.844 16.3957C14.9639 15.9786 14.2227 15.284 13.7133 14.4967H13.7133ZM15.3807 9.35558H13.7133C14.2228 8.52206 14.9639 7.87331 15.7974 7.45655C15.6585 8.01224 15.4734 8.66068 15.3807 9.35558H15.3807ZM18.0205 16.8587C17.7889 16.7198 17.3259 15.9325 17.0477 14.4502H18.854C18.6227 15.9325 18.2059 16.766 18.0205 16.8587ZM19.086 12.8293H16.9092C16.9092 12.5514 16.863 12.2271 16.863 11.903C16.863 11.5787 16.863 11.3008 16.9092 10.9768H19.086C19.086 11.2547 19.1322 11.579 19.1322 11.903C19.086 12.2271 19.086 12.5515 19.086 12.8293Z" fill="#937300"/>
<path d="M6.62259 12.7365H8.28996C8.75325 12.7365 9.12348 12.3659 9.12348 11.903C9.12348 11.4397 8.75292 11.0694 8.28996 11.0694H6.62259C6.15929 11.0694 5.78906 11.44 5.78906 11.903C5.78874 12.3659 6.15931 12.7365 6.62259 12.7365Z" fill="#937300"/>
<path d="M7.17611 8.33647L8.70453 8.98488C8.79726 9.03107 8.93618 9.03107 9.0289 9.03107C9.35327 9.03107 9.67731 8.84595 9.81623 8.52158C10.0014 8.10481 9.77003 7.59534 9.35294 7.4564L7.77828 6.80799C7.36151 6.62287 6.85204 6.85419 6.7131 7.27128C6.52765 7.68805 6.7593 8.15104 7.17607 8.33647L7.17611 8.33647Z" fill="#937300"/>
<path d="M8.70917 14.867L7.18075 15.5154C6.76398 15.7006 6.57854 16.1638 6.71745 16.5806C6.85638 16.905 7.18075 17.0901 7.50479 17.0901C7.59751 17.0901 7.73643 17.0901 7.82915 17.0439L9.35758 16.3955C9.77435 16.2104 9.95979 15.7471 9.82087 15.3303C9.58923 14.867 9.12594 14.6816 8.70921 14.867L8.70917 14.867Z" fill="#937300"/>
<path d="M26.8203 11.9028C26.8203 12.3661 27.1909 12.7363 27.6538 12.7363H29.3212C29.7845 12.7363 30.1547 12.3658 30.1547 11.9028C30.1547 11.4395 29.7842 11.0693 29.3212 11.0693H27.6538C27.1909 11.069 26.8203 11.4395 26.8203 11.9028Z" fill="#937300"/>
<path d="M26.5902 16.3954L28.1187 17.0438C28.2114 17.09 28.3503 17.09 28.443 17.09C28.7674 17.09 29.0914 16.9049 29.2304 16.5806C29.4155 16.1638 29.1842 15.6543 28.7671 15.5154L27.2386 14.8673C26.8219 14.6822 26.3124 14.9135 26.1735 15.3306C25.988 15.747 26.1735 16.2103 26.5902 16.3954L26.5902 16.3954Z" fill="#937300"/>
<path d="M26.9114 9.03119C27.0041 9.03119 27.143 9.03119 27.2358 8.98499L28.7642 8.33659C29.181 8.15146 29.3664 7.68818 29.2275 7.2714C29.0424 6.85463 28.5791 6.66919 28.1623 6.80811L26.6339 7.45651C26.2171 7.64164 26.0317 8.10492 26.1706 8.5217C26.3095 8.84607 26.5873 9.03119 26.9114 9.03119L26.9114 9.03119Z" fill="#937300"/>
<path d="M8.24128 20.4473C9.75068 20.4605 10.9632 21.6947 10.9499 23.2037C10.9367 24.7131 9.70222 25.9256 8.19314 25.9124C6.68407 25.8992 5.47125 24.6647 5.48448 23.1556C5.49805 21.6465 6.7322 20.4337 8.24128 20.4473Z" fill="#937300"/>
<path d="M14.5452 23.1113L13.48 24.4543C12.6927 25.3805 11.6275 26.0755 10.4696 26.3995L10.0991 26.446C9.63577 26.585 9.17283 26.6312 8.66335 26.6312H8.01494C7.18142 26.6312 6.39372 26.7701 5.60643 27.0017C3.84634 27.5574 2.27168 28.7154 1.25264 30.2438L0.511512 31.309C0.140942 31.8647 0.279866 32.652 0.835881 33.0226C1.06753 33.1615 1.29917 33.2542 1.53049 33.2542C1.94726 33.2542 2.31782 33.0691 2.54944 32.6985L3.29057 31.6333C3.89278 30.7533 4.72628 30.0587 5.6526 29.6419V34.7368L5.74533 37.6548C5.74533 37.9327 5.65261 38.1643 5.46748 38.396L2.54949 41.638C2.04 42.2402 2.0862 43.1203 2.64221 43.6294C2.92006 43.8611 3.24442 44 3.61502 44C3.98558 44 4.40235 43.8611 4.6802 43.5367L7.59819 40.2947C8.2928 39.5535 8.61714 38.5811 8.61714 37.5621L8.57094 35.7558L11.0718 38.1178C11.3497 38.3957 11.4424 38.8124 11.3497 39.183L10.4235 42.1472C10.1918 42.8883 10.6086 43.6756 11.3497 43.9535C11.4886 43.9997 11.6275 43.9997 11.7665 43.9997C12.3687 43.9997 12.9244 43.6292 13.1095 43.0269L14.0357 40.0627C14.499 38.6732 14.0819 37.0985 13.0167 36.0795L10.9788 34.1343L10.9791 28.8081L11.118 28.7619C12.8316 28.3451 14.36 27.3262 15.4718 25.9828L16.537 24.6398C16.9537 24.0841 16.9075 23.2968 16.3519 22.8797C15.7496 22.4629 14.9623 22.5553 14.5452 23.1113L14.5452 23.1113Z" fill="#937300"/>
<path d="M30.4809 23.1344C30.4941 24.6435 29.2813 25.8776 27.7722 25.8909C26.2628 25.9038 25.0286 24.6913 25.0157 23.1819C25.0025 21.6728 26.2153 20.4387 27.7244 20.4254C29.2335 20.4122 30.4676 21.625 30.4809 23.1344Z" fill="#937300"/>
<path d="M35.4829 31.3092L34.7418 30.244C33.6766 28.7156 32.1482 27.5577 30.388 27.002C29.6007 26.7703 28.7668 26.6314 27.9795 26.6314H27.3311C26.7754 26.6314 26.3124 26.5852 25.8491 26.4463L25.5247 26.3536C24.3206 26.0292 23.2552 25.3808 22.5144 24.4083L21.4492 23.0653C21.0324 22.5096 20.2451 22.4631 19.6891 22.8802C19.1334 23.2969 19.0869 24.0843 19.504 24.6403L20.5692 25.9833C21.6808 27.3262 23.2093 28.3453 24.9229 28.7624L25.0619 28.8086V34.0886L23.0239 36.0339C21.9587 37.0528 21.5416 38.6275 22.0049 40.017L22.9312 42.9813C23.1163 43.5835 23.6723 43.9541 24.2742 43.9541C24.4131 43.9541 24.552 43.9541 24.6909 43.9079C25.4321 43.6762 25.8488 42.8889 25.6172 42.1016L24.6909 39.1373C24.552 38.7668 24.6909 38.35 24.9688 38.0721L27.4697 35.7101L27.4235 37.5164C27.3773 38.5354 27.7478 39.5079 28.4424 40.249L31.3604 43.491C31.6383 43.8154 32.0088 43.9543 32.4256 43.9543C32.75 43.9543 33.1202 43.8154 33.3984 43.5838C34.0006 43.0743 34.0468 42.148 33.4911 41.5923L30.5731 38.3503C30.388 38.1652 30.2953 37.887 30.2953 37.6092L30.388 34.6912V29.5962C31.3143 30.013 32.1481 30.7079 32.7501 31.5877L33.4912 32.6529C33.7228 33.0234 34.1396 33.2085 34.5101 33.2085C34.7418 33.2085 34.9734 33.1158 35.2047 32.9769C35.7146 32.6525 35.8535 31.8652 35.4829 31.3092H35.4829Z" fill="#937300"/>
</svg>
