<svg width="40" height="40" viewBox="0 0 40 40" fill="none" xmlns="http://www.w3.org/2000/svg">
    <mask id="mask0_2571_88803" style="mask-type:alpha" maskUnits="userSpaceOnUse" x="0" y="0" width="40" height="40">
        <rect width="40" height="40" fill="#D9D9D9"/>
    </mask>
    <g mask="url(#mask0_2571_88803)">
        <path d="M15.0011 25.8331V18.5831H13.7511C13.4458 18.5831 13.1888 18.4791 12.9801 18.2711C12.7721 18.0624 12.6681 17.7914 12.6681 17.4581C12.6681 17.1247 12.7721 16.8611 12.9801 16.6671C13.1888 16.4724 13.4598 16.3751 13.7931 16.3751H15.8341C16.2234 16.3751 16.5498 16.5071 16.8131 16.7711C17.0771 17.0351 17.2091 17.3614 17.2091 17.7501V25.8751C17.2091 26.1804 17.1051 26.4374 16.8971 26.6461C16.6884 26.8541 16.4314 26.9581 16.1261 26.9581C15.7928 26.9581 15.5218 26.8541 15.3131 26.6461C15.1051 26.4374 15.0011 26.1664 15.0011 25.8331ZM21.0431 26.9581C20.5431 26.9581 20.1194 26.7847 19.7721 26.4381C19.4248 26.0907 19.2511 25.6671 19.2511 25.1671V18.1671C19.2511 17.6671 19.4248 17.2434 19.7721 16.8961C20.1194 16.5487 20.5431 16.3751 21.0431 16.3751H24.4591C24.9591 16.3751 25.3758 16.5417 25.7091 16.8751C26.0424 17.2084 26.2091 17.6251 26.2091 18.1251V25.1671C26.2091 25.6671 26.0424 26.0907 25.7091 26.4381C25.3758 26.7847 24.9591 26.9581 24.4591 26.9581H21.0431ZM21.4591 24.7081H24.0011V18.5831H21.4591V24.7081ZM7.83409 23.0001C8.16742 26.0834 9.48009 28.6667 11.7721 30.7501C14.0634 32.8334 16.8064 33.8751 20.0011 33.8751C23.4178 33.8751 26.3068 32.6944 28.6681 30.3331C31.0288 27.9724 32.2091 25.0837 32.2091 21.6671C32.2091 18.3337 31.0634 15.4864 28.7721 13.1251C26.4801 10.7637 23.6814 9.54139 20.3761 9.45805V12.6251C20.3761 12.9584 20.2371 13.1807 19.9591 13.2921C19.6818 13.4027 19.4318 13.3471 19.2091 13.1251L14.5841 8.50005C14.4454 8.36139 14.3761 8.19472 14.3761 8.00005C14.3761 7.80539 14.4454 7.63872 14.5841 7.50005L19.2091 2.87505C19.4318 2.65305 19.6818 2.59739 19.9591 2.70805C20.2371 2.81939 20.3761 3.04172 20.3761 3.37505V6.66705C22.4041 6.72239 24.3068 7.14605 26.0841 7.93805C27.8621 8.72939 29.4108 9.80572 30.7301 11.1671C32.0494 12.5277 33.0911 14.1041 33.8551 15.8961C34.6191 17.6874 35.0011 19.6111 35.0011 21.6671C35.0011 23.7504 34.6051 25.7017 33.8131 27.5211C33.0218 29.3404 31.9524 30.9237 30.6051 32.2711C29.2578 33.6184 27.6744 34.6877 25.8551 35.4791C24.0358 36.2711 22.0844 36.6671 20.0011 36.6671C16.0564 36.6671 12.6744 35.3754 9.85509 32.7921C7.03576 30.2087 5.44542 26.9864 5.08409 23.1251C5.02876 22.7364 5.14009 22.3961 5.41809 22.1041C5.69542 21.8127 6.04242 21.6671 6.45909 21.6671C6.79242 21.6671 7.09109 21.7921 7.35509 22.0421C7.61909 22.2921 7.77876 22.6114 7.83409 23.0001Z" fill="white"/>
    </g>
</svg>
