<svg width="32" height="32" viewBox="0 0 32 32" fill="none" xmlns="http://www.w3.org/2000/svg">
    <path d="M26.7519 21.8051C22.8728 19.9273 22.2546 17.0281 22.2271 16.8131C22.1938 16.5526 22.156 16.3478 22.4434 16.0828C22.7205 15.8268 23.95 15.0659 24.2911 14.8278C24.8549 14.4336 25.1032 14.04 24.9202 13.5561C24.7922 13.2214 24.4805 13.0953 24.1522 13.0953C24.0486 13.0956 23.9454 13.1072 23.8444 13.1299C23.2248 13.2643 22.6232 13.5747 22.2751 13.6585C22.2332 13.6693 22.1903 13.6751 22.1471 13.6758C21.9615 13.6758 21.8911 13.5932 21.909 13.3699C21.9525 12.6928 22.0447 11.3712 21.9378 10.1366C21.7912 8.43803 21.2434 7.59643 20.5938 6.85211C20.2796 6.49115 18.8204 4.94043 16.0044 4.94043C13.1884 4.94043 11.7311 6.49115 11.4188 6.84763C10.7672 7.59195 10.22 8.43355 10.0748 10.1321C9.96788 11.3667 10.0639 12.6876 10.1036 13.3654C10.1164 13.5779 10.0511 13.6713 9.86548 13.6713C9.82229 13.6706 9.77933 13.6648 9.73748 13.654C9.38996 13.5702 8.78836 13.2598 8.16884 13.1254C8.06779 13.1027 7.96457 13.0911 7.861 13.0908C7.5314 13.0908 7.221 13.2188 7.093 13.5516C6.90996 14.0355 7.157 14.4291 7.72276 14.8233C8.06388 15.0614 9.29332 15.8217 9.57044 16.0784C9.85716 16.3433 9.82004 16.5481 9.78676 16.8086C9.75924 17.0268 9.14036 19.926 5.26196 21.8006C5.03476 21.9107 4.6482 22.1436 5.3298 22.52C6.39988 23.1113 7.1122 23.048 7.6658 23.4044C8.13556 23.7072 7.8578 24.3599 8.19956 24.5955C8.6194 24.8854 9.86036 24.575 11.4636 25.1043C12.8076 25.5471 13.6242 26.7984 16.0076 26.7984C18.3909 26.7984 19.2312 25.5414 20.5516 25.1043C22.1516 24.575 23.3951 24.8854 23.8156 24.5955C24.1567 24.3599 23.8796 23.7072 24.3493 23.4044C24.9029 23.048 25.6146 23.1113 26.6853 22.52C27.3656 22.1481 26.9791 21.9152 26.7519 21.8051Z" fill="white"/>
    <path d="M28.4363 21.5842C28.2622 21.1106 27.9307 20.8572 27.5531 20.6472C27.482 20.6056 27.4167 20.5724 27.3611 20.5468C27.2484 20.4885 27.1332 20.4322 27.0187 20.3727C25.8417 19.7487 24.9227 18.9615 24.2852 18.0284C24.1042 17.7657 23.9472 17.4872 23.8161 17.1964C23.7617 17.0408 23.7643 16.9525 23.8033 16.8719C23.842 16.8098 23.8932 16.7564 23.9537 16.7151C24.1559 16.5813 24.3646 16.4456 24.506 16.3541C24.7582 16.1909 24.9579 16.0616 25.0865 15.9701C25.5697 15.6322 25.9076 15.2732 26.1188 14.8719C26.2662 14.5946 26.3521 14.2889 26.3708 13.9755C26.3894 13.6621 26.3404 13.3483 26.227 13.0556C25.907 12.2133 25.1115 11.6904 24.1476 11.6904C23.9443 11.6902 23.7416 11.7117 23.5428 11.7544C23.4897 11.766 23.4366 11.7781 23.3847 11.7916C23.3937 11.2156 23.3809 10.6076 23.3297 10.0092C23.1479 7.90548 22.4113 6.80276 21.6433 5.9234C21.1515 5.37235 20.5722 4.90616 19.9287 4.54356C18.7633 3.87796 17.4417 3.54004 16.0011 3.54004C14.5604 3.54004 13.2452 3.87796 12.0785 4.54356C11.4335 4.90627 10.853 5.3734 10.3607 5.92596C9.59274 6.80532 8.8561 7.90996 8.67434 10.0117C8.62314 10.6101 8.61034 11.2213 8.61866 11.7941C8.56682 11.7807 8.51434 11.7685 8.46122 11.757C8.26247 11.7143 8.05972 11.6928 7.85642 11.693C6.89194 11.693 6.09514 12.2159 5.77642 13.0581C5.6625 13.351 5.61297 13.665 5.63119 13.9787C5.64941 14.2925 5.73496 14.5986 5.88202 14.8764C6.09386 15.2776 6.43178 15.6367 6.91498 15.9746C7.04298 16.0642 7.2433 16.1935 7.49546 16.3586C7.63178 16.4469 7.83082 16.5762 8.02602 16.7055C8.09432 16.7496 8.15237 16.8079 8.19626 16.8764C8.23722 16.9602 8.2385 17.0504 8.1777 17.2168C8.04838 17.5016 7.89396 17.7742 7.71626 18.0316C7.0929 18.9436 6.20074 19.7167 5.06154 20.3356C4.45802 20.6556 3.83082 20.8693 3.56586 21.5893C3.36618 22.1327 3.49674 22.7509 4.00426 23.2719C4.19053 23.4663 4.40657 23.6299 4.64426 23.7564C5.13885 24.0282 5.66477 24.2386 6.21034 24.3829C6.32293 24.412 6.42982 24.4598 6.5265 24.5244C6.71146 24.6863 6.68522 24.9301 6.93162 25.2872C7.05531 25.4718 7.21247 25.6316 7.39498 25.7583C7.9121 26.1154 8.49322 26.1378 9.1089 26.1615C9.66506 26.1826 10.2955 26.2069 11.0155 26.4444C11.3137 26.5429 11.6235 26.7336 11.9825 26.9564C12.8446 27.4863 14.0247 28.2114 15.9998 28.2114C17.9748 28.2114 19.1633 27.4824 20.0318 26.9506C20.3883 26.7317 20.6961 26.5429 20.986 26.4469C21.706 26.2088 22.3364 26.1852 22.8926 26.164C23.5083 26.1404 24.0894 26.118 24.6065 25.7608C24.8227 25.6101 25.0027 25.4134 25.1339 25.1848C25.3111 24.8834 25.3067 24.6728 25.4731 24.5256C25.5638 24.4641 25.6642 24.4183 25.77 24.39C26.323 24.2452 26.8561 24.0328 27.3572 23.7576C27.6098 23.6222 27.8371 23.4442 28.0292 23.2316L28.0356 23.2239C28.5118 22.7144 28.6315 22.1141 28.4363 21.5842ZM26.6807 22.5276C25.61 23.1189 24.8983 23.0556 24.3447 23.412C23.8743 23.7148 24.1527 24.3676 23.811 24.6031C23.3911 24.893 22.1502 24.5826 20.547 25.1119C19.2247 25.549 18.3812 26.806 16.003 26.806C13.6247 26.806 12.8011 25.5516 11.4571 25.1087C9.85706 24.5794 8.61354 24.8898 8.19306 24.5999C7.85194 24.3644 8.12906 23.7116 7.6593 23.4088C7.10506 23.0524 6.39338 23.1157 5.3233 22.5276C4.6417 22.1512 5.02826 21.9183 5.25546 21.8082C9.13386 19.9304 9.75274 17.0312 9.78026 16.8162C9.81354 16.5557 9.85066 16.3509 9.56394 16.086C9.28682 15.83 8.05738 15.069 7.71626 14.8309C7.15178 14.4367 6.90346 14.0431 7.0865 13.5592C7.2145 13.2245 7.52682 13.0984 7.8545 13.0984C7.95807 13.0988 8.06129 13.1103 8.16234 13.133C8.78186 13.2674 9.38346 13.5778 9.73098 13.6616C9.77283 13.6724 9.81579 13.6782 9.85898 13.6789C10.0446 13.6789 10.1099 13.5855 10.0971 13.373C10.0574 12.6952 9.96138 11.3743 10.0683 10.1397C10.2148 8.44116 10.762 7.59956 11.4123 6.85524C11.7246 6.49748 13.1921 4.94676 15.9985 4.94676C18.8049 4.94676 20.2763 6.49108 20.5886 6.84756C21.2395 7.59188 21.7873 8.43348 21.9326 10.132C22.0395 11.3666 21.9473 12.6882 21.9038 13.3653C21.8891 13.5887 21.9563 13.6712 22.1419 13.6712C22.1851 13.6705 22.228 13.6647 22.2699 13.654C22.618 13.5701 23.2196 13.2597 23.8391 13.1253C23.9402 13.1027 24.0434 13.0911 24.147 13.0908C24.4766 13.0908 24.787 13.2188 24.915 13.5516C25.098 14.0354 24.851 14.429 24.2859 14.8232C23.9447 15.0613 22.7153 15.8216 22.4382 16.0783C22.1508 16.3432 22.1886 16.548 22.2219 16.8085C22.2494 17.0268 22.8676 19.926 26.7467 21.8005C26.9758 21.9151 27.3623 22.148 26.6807 22.5276Z" fill="#AAABAE"/>
</svg>
