<svg width="48" height="48" viewBox="0 0 48 48" fill="none" xmlns="http://www.w3.org/2000/svg">
<rect width="48" height="48" rx="24" fill="#E5FFF7"/>
<path d="M27.0376 12.5547C26.6824 12.6204 26.46 12.7028 26.336 12.7655C26.7745 13.4379 27.6898 14.2939 27.1306 15.4121C26.631 16.4118 25.591 16.3536 24.6892 16.3846C25.2428 17.1409 25.8827 17.9078 25.3893 18.8949C25.0632 19.5472 24.3563 19.9653 23.2279 20.1744C22.7052 20.2696 22.2129 19.9239 22.1177 19.4112C22.0218 18.894 22.3637 18.3968 22.8809 18.3009C23.2361 18.2351 23.4591 18.1528 23.5836 18.0899C23.1436 17.4221 22.2318 16.5573 22.7883 15.4435C23.2875 14.446 24.326 14.502 25.2298 14.471C24.6757 13.7145 24.0363 12.9477 24.5297 11.96C24.8557 11.3084 25.5622 10.8903 26.6906 10.681C27.2082 10.5822 27.7043 10.927 27.8009 11.4441C27.8967 11.9617 27.5548 12.4587 27.0377 12.5546L27.0376 12.5547Z" fill="#00704A"/>
<path d="M32.5595 25.219C31.395 25.7974 30.4398 24.7647 29.908 24.4208C29.8546 24.5371 29.7694 24.7619 29.702 25.1268C29.6039 25.6553 29.0937 25.9851 28.5918 25.8896C28.0747 25.7937 27.7327 25.2971 27.8286 24.7793C28.0379 23.651 28.456 22.9442 29.1076 22.618C30.0991 22.123 30.8356 22.7447 31.6187 23.3181C31.6501 22.4043 31.5959 21.3738 32.5911 20.8766C33.7481 20.2984 34.6889 21.3125 35.2426 21.6748C35.296 21.5579 35.3813 21.3337 35.4486 20.9696C35.5445 20.4525 36.0373 20.1083 36.5588 20.2064C37.076 20.3023 37.4179 20.7995 37.322 21.3166C37.1127 22.445 36.6946 23.1515 36.043 23.4775C35.051 23.9732 34.3155 23.3511 33.532 22.7774C33.5021 23.6496 33.5689 24.7137 32.5595 25.2189V25.219Z" fill="#00704A"/>
<path d="M11.9485 37.2763L27.4772 31.5085C27.4825 31.5065 27.4858 31.5018 27.4911 31.4999C27.7575 31.4106 27.9994 31.2713 28.2056 31.0649C29.8203 29.4502 27.6353 25.7934 24.9216 23.0786C22.2079 20.3642 18.55 18.1799 16.9353 19.7946C16.7267 20.0032 16.5838 20.247 16.495 20.5175L16.4915 20.5228L10.7237 36.0515C10.5939 36.4014 10.6799 36.7939 10.9432 37.0569C11.2072 37.3218 11.6008 37.4054 11.9485 37.2763ZM18.2826 21.1574C18.3201 21.1447 18.3626 21.1341 18.4226 21.1341C19.0859 21.1341 21.0962 21.9471 23.5749 24.425C26.3203 27.1714 27.0222 29.3425 26.8855 29.6966C26.482 29.8751 24.3124 29.1775 21.5667 26.4328C18.971 23.8372 18.213 21.7755 18.2519 21.2559C18.255 21.2459 18.2368 21.292 18.2826 21.1574ZM17.2504 23.9523C17.9615 25.2431 19.0401 26.6003 20.2196 27.7798C21.3569 28.9175 22.6574 29.9494 23.9062 30.6603C21.7694 30.606 16.9733 30.158 15.9936 27.3367L17.2504 23.9523ZM15.1453 29.6198C16.374 31.0339 18.3245 31.7849 20.2176 32.1723L13.2337 34.7666L15.1453 29.6198Z" fill="#00704A"/>
<path d="M37.3284 15.4279C37.3284 15.9539 36.9021 16.3805 36.3759 16.3805C32.9583 16.3805 29.3959 19.0421 27.6434 21.6714C27.3511 22.1095 26.7591 22.2271 26.3225 21.9357C25.8849 21.6442 25.7669 21.0524 26.0583 20.6148C28.0297 17.6575 32.0988 14.4751 36.376 14.4751C36.9022 14.4751 37.3286 14.9014 37.3286 15.4277L37.3284 15.4279Z" fill="#00704A"/>
<path d="M35.4286 11.6181C35.4286 12.1441 35.0022 12.5707 34.476 12.5707C33.95 12.5707 33.5234 12.1443 33.5234 11.6181C33.5234 11.0921 33.9498 10.6655 34.476 10.6655C35.002 10.6655 35.4286 11.0919 35.4286 11.6181Z" fill="#00704A"/>
<path d="M33.5301 27.8107C33.5301 28.3367 33.1038 28.7633 32.5776 28.7633C32.0516 28.7633 31.625 28.3369 31.625 27.8107C31.625 27.2847 32.0513 26.8582 32.5776 26.8582C33.1038 26.8582 33.5301 27.2847 33.5301 27.8107Z" fill="#00704A"/>
<path d="M21.1395 12.5702C21.1395 13.0962 20.7132 13.5228 20.1869 13.5228C19.6609 13.5228 19.2344 13.0965 19.2344 12.5702C19.2344 12.0442 19.6607 11.6177 20.1869 11.6177C20.7129 11.6179 21.1395 12.0442 21.1395 12.5702Z" fill="#00704A"/>
</svg>
