<svg width="24" height="24" viewBox="0 0 24 24" fill="none" xmlns="http://www.w3.org/2000/svg">
    <path fill-rule="evenodd" clip-rule="evenodd" d="M4.23741 11.4217C9.06923 9.31656 12.2912 7.92872 13.9033 7.25819C18.5063 5.34367 19.4627 5.0111 20.0861 5.00012C20.2232 4.9977 20.5298 5.03168 20.7284 5.19282C20.8961 5.32888 20.9422 5.51268 20.9643 5.64168C20.9864 5.77068 21.0139 6.06454 20.992 6.29416C20.7426 8.91499 19.6633 15.275 19.1142 18.2104C18.8818 19.4525 18.4244 19.8689 17.9815 19.9097C17.0189 19.9983 16.288 19.2736 15.3558 18.6625C13.897 17.7063 13.0729 17.111 11.6569 16.1779C10.0205 15.0995 11.0813 14.5068 12.0139 13.5382C12.258 13.2847 16.4988 9.42727 16.5809 9.07735C16.5912 9.03358 16.6007 8.87045 16.5038 8.78431C16.4069 8.69817 16.2639 8.72763 16.1606 8.75106C16.0143 8.78426 13.6839 10.3246 9.16938 13.372C8.5079 13.8262 7.90875 14.0475 7.37193 14.0359C6.78013 14.0232 5.64175 13.7013 4.79548 13.4262C3.75749 13.0888 2.93252 12.9104 3.00436 12.3374C3.04178 12.039 3.45279 11.7337 4.23741 11.4217Z" fill="#AAABAE"/>
</svg>