<svg width="32" height="32" viewBox="0 0 32 32" fill="none" xmlns="http://www.w3.org/2000/svg">
    <path fill-rule="evenodd" clip-rule="evenodd" d="M21.5352 2C22.047 5.84996 24.6643 8.56641 28.8985 8.80598V12.4576L28.8711 12.4599V9.35795C24.6369 9.11855 22.2025 6.82253 21.6909 2.97257L17.2054 2.97249V19.1696C17.8527 26.4601 11.4071 26.6766 8.94149 23.9125C11.8335 25.5066 16.5292 24.4704 15.9724 18.1971V2H21.5353H21.5352ZM9.48354 28.8506C6.94906 28.391 4.64448 27.0565 3.29113 25.1051C0.00320089 20.3643 2.96697 12.6378 12.5033 11.8426V16.4077L12.4876 16.41V12.985C3.64646 14.2259 2.7588 22.5959 5.20731 26.0776C6.15148 27.4203 7.70156 28.3647 9.48344 28.8506H9.48354Z" fill="#26F4EE"/>
    <path fill-rule="evenodd" clip-rule="evenodd" d="M22.8303 2.97341C23.1644 5.48674 24.3181 7.62592 26.2567 8.87528C23.6335 7.9847 22.0961 5.94077 21.7016 2.97316L22.8303 2.97341ZM28.8817 9.90044C29.2425 9.96797 29.6188 10.0137 30.0106 10.0358V14.3644C27.5544 14.5775 25.4049 13.8649 22.9002 12.5374L23.2847 19.9506C23.2847 22.3413 23.2948 23.4339 21.8392 25.6332C18.5738 30.5669 12.6961 30.9569 8.7214 28.6069C13.9187 30.4971 21.7867 28.2029 21.7713 19.9506V11.8596C24.2761 13.1871 26.4255 13.8997 28.8817 13.6865V9.90044ZM12.4983 13.0292C13.012 12.935 13.5513 12.8625 14.1184 12.8152V17.3803C12.0534 17.6801 10.7418 18.2389 10.1284 19.2727C8.1967 22.5281 10.6838 25.11 13.466 25.4981C10.2319 25.9717 6.43941 23.0831 8.70044 19.2727C9.31368 18.2391 10.4332 17.6801 12.4983 17.3803V13.0292ZM18.644 2.97266H18.8163H18.644Z" fill="#FB2C53"/>
    <path fill-rule="evenodd" clip-rule="evenodd" d="M21.6842 2.97176C22.1957 6.82172 24.6289 9.11766 28.8609 9.35714V13.6856C26.4059 13.8989 24.2576 13.1862 21.7541 11.8587V19.9497C21.7737 30.5102 8.88987 31.3137 5.209 26.0767C2.76181 22.595 3.64893 14.225 12.4857 12.9841V17.3793C10.4216 17.6791 9.30266 18.2381 8.68972 19.2717C4.90176 25.6587 18.114 29.4588 17.2009 19.1688V2.97168L21.6841 2.97176H21.6842Z" fill="black"/>
</svg>

