<svg width="32" height="32" viewBox="0 0 32 32" fill="none" xmlns="http://www.w3.org/2000/svg">
    <path d="M16.6064 2.68949C18.1128 2.66699 19.6106 2.68033 21.1067 2.66699C21.1973 4.36792 21.831 6.10051 23.1207 7.30307C24.4079 8.53564 26.2285 9.09984 28 9.29068V13.7651C26.3399 13.7126 24.672 13.3792 23.1656 12.6892C22.5095 12.4025 21.8983 12.0333 21.3 11.6558C21.2923 14.9026 21.3139 18.1453 21.2785 21.3788C21.1887 22.9322 20.6578 24.4782 19.722 25.7582C18.2164 27.8892 15.6032 29.2784 12.9193 29.3217C11.273 29.4126 9.62844 28.9792 8.22561 28.1809C5.90078 26.8575 4.26486 24.4348 4.02659 21.8347C3.99658 21.284 3.99197 20.7323 4.01278 20.1813C4.21997 18.067 5.30339 16.0444 6.98507 14.6685C8.8912 13.0659 11.5613 12.3025 14.0614 12.7542C14.0847 14.4001 14.0165 16.0444 14.0165 17.6903C12.8744 17.3336 11.5398 17.4336 10.5418 18.1028C9.81167 18.5671 9.25991 19.2503 8.97148 20.0471C8.73322 20.6105 8.80142 21.2363 8.81523 21.8347C9.08889 23.6581 10.9052 25.1907 12.8442 25.0249C14.1296 25.0115 15.3615 24.2915 16.0314 23.2373C16.2481 22.8681 16.4907 22.4906 16.5036 22.0564C16.6167 20.0688 16.5718 18.0895 16.5857 16.1019C16.5951 11.6225 16.5718 7.15557 16.6072 2.69033L16.6064 2.68949Z" fill="#AAABAE"/>
</svg>

