<svg width="161" height="160" viewBox="0 0 161 160" fill="none" xmlns="http://www.w3.org/2000/svg">
    <path d="M71 125H91C91 130.5 86.5 135 81 135C75.5 135 71 130.5 71 125ZM61 120H101V110H61V120ZM118.5 72.5C118.5 91.6 105.2 101.8 99.65 105H62.35C56.8 101.8 43.5 91.6 43.5 72.5C43.5 51.8 60.3 35 81 35C101.7 35 118.5 51.8 118.5 72.5ZM108.5 72.5C108.5 57.35 96.15 45 81 45C65.85 45 53.5 57.35 53.5 72.5C53.5 84.85 60.95 91.95 65.25 95H96.75C101.05 91.95 108.5 84.85 108.5 72.5Z" fill="#FFEFC8"/>
    <path d="M134.5 62L141.35 58.85L144.5 52L147.65 58.85L154.5 62L147.65 65.15L144.5 72L141.35 65.15L134.5 62Z" fill="#FFEFC8"/>
    <path d="M134.2 41.7L129.5 52L124.8 41.7L114.5 37L124.8 32.3L129.5 22L134.2 32.3L144.5 37L134.2 41.7Z" fill="#FFEFC8"/>
</svg>
