<svg width="48" height="48" viewBox="0 0 48 48" fill="none" xmlns="http://www.w3.org/2000/svg">
    <path d="M11.58 30.14L12.3836 28.8734C12.0028 28.6318 11.5335 28.5744 11.1056 28.717L11.58 30.14ZM6 32L4.57698 31.5257C4.39731 32.0647 4.53759 32.6589 4.93934 33.0607C5.34109 33.4624 5.93534 33.6027 6.47434 33.423L6 32ZM7.85999 26.42L9.28301 26.8944C9.42562 26.4665 9.36817 25.9972 9.12657 25.6164L7.85999 26.42ZM18 33.5C25.4558 33.5 31.5 27.4558 31.5 20H28.5C28.5 25.799 23.799 30.5 18 30.5V33.5ZM10.7764 31.4066C12.8661 32.7324 15.3457 33.5 18 33.5V30.5C15.9315 30.5 14.0069 29.9034 12.3836 28.8734L10.7764 31.4066ZM11.1056 28.717L5.52566 30.577L6.47434 33.423L12.0543 31.563L11.1056 28.717ZM7.42302 32.4743L9.28301 26.8944L6.43696 25.9457L4.57698 31.5257L7.42302 32.4743ZM4.5 20C4.5 22.6543 5.26756 25.1339 6.59341 27.2236L9.12657 25.6164C8.09661 23.9931 7.5 22.0685 7.5 20H4.5ZM18 6.5C10.5442 6.5 4.5 12.5442 4.5 20H7.5C7.5 14.201 12.201 9.5 18 9.5V6.5ZM31.5 20C31.5 12.5442 25.4558 6.5 18 6.5V9.5C23.799 9.5 28.5 14.201 28.5 20H31.5Z" fill="#AAABAE"/>
    <path d="M18.6758 31.9792C20.3172 36.6508 24.7677 40 30.0003 40C32.3617 40 34.5639 39.318 36.4203 38.14L42.0003 40L40.1403 34.42L40.4243 33.9488C41.4272 32.1955 42.0003 30.1646 42.0003 28C42.0003 21.3726 36.6277 16 30.0003 16L29.5504 16.0083L29.3246 16.0203" stroke="#AAABAE" stroke-width="3" stroke-linecap="round" stroke-linejoin="round"/>
</svg>

