<svg width="48" height="48" viewBox="0 0 48 48" fill="none" xmlns="http://www.w3.org/2000/svg">
    <path d="M42.75 14.1703L36.75 17.625V10.5C36.75 8.84531 35.4047 7.5 33.75 7.5H6C4.34531 7.5 3 8.84531 3 10.5V37.5C3 39.1547 4.34531 40.5 6 40.5H33.75C35.4047 40.5 36.75 39.1547 36.75 37.5V30.375L42.75 33.8297C43.7484 34.4063 45 33.6844 45 32.5359V15.4688C45 14.3156 43.7484 13.5937 42.75 14.1703ZM33.375 37.125H6.375V10.875H33.375V37.125ZM41.625 29.2969L36.75 26.4938V21.5109L41.625 18.7031V29.2969ZM9.75 16.875H15C15.2063 16.875 15.375 16.7063 15.375 16.5V14.25C15.375 14.0437 15.2063 13.875 15 13.875H9.75C9.54375 13.875 9.375 14.0437 9.375 14.25V16.5C9.375 16.7063 9.54375 16.875 9.75 16.875Z" fill="#AAABAE"/>
</svg>

