<svg width="48" height="48" viewBox="0 0 48 48" fill="none" xmlns="http://www.w3.org/2000/svg">
    <path d="M3.99844 34.0002V32.5002C3.17002 32.5002 2.49844 33.1718 2.49844 34.0002H3.99844ZM43.9984 34.0002H45.4984C45.4984 33.1718 44.8269 32.5002 43.9984 32.5002V34.0002ZM3.99844 35.5002H43.9984V32.5002H3.99844V35.5002ZM42.4984 34.0002V38.0002H45.4984V34.0002H42.4984ZM41.9984 38.5002H5.99844V41.5002H41.9984V38.5002ZM5.49844 38.0002V34.0002H2.49844V38.0002H5.49844ZM5.99844 38.5002C5.7223 38.5002 5.49844 38.2763 5.49844 38.0002H2.49844C2.49844 39.9332 4.06545 41.5002 5.99844 41.5002V38.5002ZM42.4984 38.0002C42.4984 38.2763 42.2746 38.5002 41.9984 38.5002V41.5002C43.9314 41.5002 45.4984 39.9332 45.4984 38.0002H42.4984Z" fill="#AAABAE"/>
    <path d="M41.5016 14.4V12.9H38.5016V14.4H41.5016ZM34.8 11.5002H36.3V8.5002H34.8V11.5002ZM38.0016 32.5002H10.0016V35.5002H38.0016V32.5002ZM9.50156 32.0002V12.0002H6.50156V32.0002H9.50156ZM10.0016 32.5002C9.72542 32.5002 9.50156 32.2763 9.50156 32.0002H6.50156C6.50156 33.9332 8.06856 35.5002 10.0016 35.5002V32.5002ZM38.5016 32.0002C38.5016 32.2763 38.2777 32.5002 38.0016 32.5002V35.5002C39.9346 35.5002 41.5016 33.9332 41.5016 32.0002H38.5016ZM10.0016 8.5002C8.06856 8.5002 6.50156 10.0672 6.50156 12.0002H9.50156C9.50156 11.7241 9.72541 11.5002 10.0016 11.5002V8.5002ZM38.5016 14.4V32.0002H41.5016V14.4H38.5016ZM10.0016 11.5002H34.8V8.5002H10.0016V11.5002Z" fill="#AAABAE"/>
    <path d="M12.5016 27.6C12.5016 25.9431 14.5163 24.6 17.0016 24.6C19.4868 24.6 21.5016 25.9431 21.5016 27.6" stroke="#AAABAE" stroke-width="3" stroke-linecap="round" stroke-linejoin="round"/>
    <path d="M17.0016 21C18.6584 21 20.0016 19.6569 20.0016 18C20.0016 16.3431 18.6584 15 17.0016 15C15.3447 15 14.0016 16.3431 14.0016 18C14.0016 19.6569 15.3447 21 17.0016 21Z" stroke="#AAABAE" stroke-width="3" stroke-linecap="round" stroke-linejoin="round"/>
    <path d="M26.4984 27.6C26.4984 25.9431 28.5132 24.6 30.9984 24.6C33.4837 24.6 35.4984 25.9431 35.4984 27.6" stroke="#AAABAE" stroke-width="3" stroke-linecap="round" stroke-linejoin="round"/>
    <path d="M30.9984 21C32.6553 21 33.9984 19.6569 33.9984 18C33.9984 16.3431 32.6553 15 30.9984 15C29.3416 15 27.9984 16.3431 27.9984 18C27.9984 19.6569 29.3416 21 30.9984 21Z" stroke="#AAABAE" stroke-width="3" stroke-linecap="round" stroke-linejoin="round"/>
    <circle cx="39.6" cy="9.6" r="4.8" stroke="#AAABAE" stroke-width="3"/>
</svg>
