<svg width="24" height="24" viewBox="0 0 24 24" fill="none" xmlns="http://www.w3.org/2000/svg">
<g id="Community nav/meet a trainer/selected">
<g id="Vector">
<path d="M15 10C15 13.3137 12.3137 16 9 16C7.81929 16 6.71824 15.659 5.78998 15.07L3 16L3.92999 13.21C3.34104 12.2818 3 11.1807 3 10C3 6.68629 5.68629 4 9 4C12.3137 4 15 6.68629 15 10Z" fill="#191C1E"/>
<path d="M5.78998 15.07L6.32571 14.2256C6.07184 14.0645 5.75898 14.0262 5.47375 14.1213L5.78998 15.07ZM3 16L2.05132 15.6838C1.93154 16.0431 2.02506 16.4393 2.29289 16.7071C2.56073 16.9749 2.95689 17.0685 3.31623 16.9487L3 16ZM3.92999 13.21L4.87868 13.5262C4.97375 13.241 4.93545 12.9282 4.77438 12.6743L3.92999 13.21ZM9 17C12.866 17 16 13.866 16 10H14C14 12.7614 11.7614 15 9 15V17ZM5.25424 15.9144C6.33796 16.602 7.62403 17 9 17V15C8.01456 15 7.09852 14.7159 6.32571 14.2256L5.25424 15.9144ZM5.47375 14.1213L2.68377 15.0513L3.31623 16.9487L6.10621 16.0187L5.47375 14.1213ZM3.94868 16.3162L4.87868 13.5262L2.98131 12.8938L2.05132 15.6838L3.94868 16.3162ZM2 10C2 11.376 2.39802 12.662 3.08561 13.7458L4.77438 12.6743C4.28406 11.9015 4 10.9854 4 10H2ZM9 3C5.13401 3 2 6.13401 2 10H4C4 7.23858 6.23858 5 9 5V3ZM16 10C16 6.13401 12.866 3 9 3V5C11.7614 5 14 7.23858 14 10H16Z" fill="#191C1E"/>
</g>
<path id="Vector_2" d="M15.0001 8V7C14.994 7 14.9879 7.00006 14.9817 7.00017L15.0001 8ZM20.2122 16.9744L21.0686 17.4907C21.0725 17.4841 21.0764 17.4775 21.0802 17.4709L20.2122 16.9744ZM20.0701 17.21L19.2137 16.6937C19.0626 16.9443 19.0289 17.2486 19.1215 17.5262L20.0701 17.21ZM21.0001 20L20.6839 20.9487C21.0433 21.0685 21.4394 20.9749 21.7073 20.7071C21.9751 20.4393 22.0686 20.0431 21.9488 19.6838L21.0001 20ZM18.2101 19.07L18.5264 18.1213C18.2411 18.0262 17.9282 18.0645 17.6744 18.2256L18.2101 19.07ZM10.2813 15.6581C10.0983 15.137 9.52745 14.8631 9.00639 15.0461C8.48533 15.2292 8.21135 15.8 8.39444 16.3211L10.2813 15.6581ZM14.6092 7.01155C14.0577 7.04086 13.6344 7.51171 13.6637 8.06321C13.693 8.61472 14.1639 9.03804 14.7154 9.00873L14.6092 7.01155ZM14.7752 8.00414L14.7568 7.00431C14.7452 7.00452 14.7337 7.00493 14.7221 7.00555L14.7752 8.00414ZM15.0001 9C17.7616 9 20.0001 11.2386 20.0001 14H22.0001C22.0001 10.134 18.8661 7 15.0001 7V9ZM20.0001 14C20.0001 14.9036 19.7614 15.7485 19.3441 16.4779L21.0802 17.4709C21.6659 16.447 22.0001 15.261 22.0001 14H20.0001ZM19.3558 16.4581L19.2137 16.6937L20.9266 17.7263L21.0686 17.4907L19.3558 16.4581ZM19.1215 17.5262L20.0515 20.3162L21.9488 19.6838L21.0188 16.8938L19.1215 17.5262ZM21.3164 19.0513L18.5264 18.1213L17.8939 20.0187L20.6839 20.9487L21.3164 19.0513ZM17.6744 18.2256C16.9017 18.716 15.9856 19 15.0001 19V21C16.3761 21 17.6622 20.602 18.7459 19.9143L17.6744 18.2256ZM15.0001 19C12.8214 19 10.9658 17.6059 10.2813 15.6581L8.39444 16.3211C9.35149 19.0449 11.9462 21 15.0001 21V19ZM14.7154 9.00873L14.8283 9.00273L14.7221 7.00555L14.6092 7.01155L14.7154 9.00873ZM14.7936 9.00397L15.0185 8.99983L14.9817 7.00017L14.7568 7.00431L14.7936 9.00397Z" fill="#191C1E"/>
</g>
</svg>
