<svg width="10" height="12" viewBox="0 0 10 12" fill="none" xmlns="http://www.w3.org/2000/svg">
<path d="M1.0026 10.6667C1.0026 11.4 1.6026 12 2.33594 12H7.66927C8.4026 12 9.0026 11.4 9.0026 10.6667V4C9.0026 3.26667 8.4026 2.66667 7.66927 2.66667H2.33594C1.6026 2.66667 1.0026 3.26667 1.0026 4V10.6667ZM3.0026 4H7.0026C7.36927 4 7.66927 4.3 7.66927 4.66667V10C7.66927 10.3667 7.36927 10.6667 7.0026 10.6667H3.0026C2.63594 10.6667 2.33594 10.3667 2.33594 10V4.66667C2.33594 4.3 2.63594 4 3.0026 4ZM7.33594 0.666667L6.8626 0.193333C6.7426 0.0733333 6.56927 0 6.39594 0H3.60927C3.43594 0 3.2626 0.0733333 3.1426 0.193333L2.66927 0.666667H1.0026C0.635938 0.666667 0.335938 0.966667 0.335938 1.33333C0.335938 1.7 0.635938 2 1.0026 2H9.0026C9.36927 2 9.66927 1.7 9.66927 1.33333C9.66927 0.966667 9.36927 0.666667 9.0026 0.666667H7.33594Z" fill="#191C1E"/>
</svg>
