<svg width="24" height="25" viewBox="0 0 24 25" fill="none" xmlns="http://www.w3.org/2000/svg">
    <path d="M3 19.881C3 17.6718 5.68629 15.881 9 15.881C12.3137 15.881 15 17.6718 15 19.881" stroke="#AAABAE" stroke-width="2" stroke-linecap="round" stroke-linejoin="round"/>
    <path d="M21.7071 11.5881C22.0976 11.1976 22.0976 10.5644 21.7071 10.1739C21.3166 9.78335 20.6834 9.78335 20.2929 10.1739L21.7071 11.5881ZM17 14.881L16.2929 15.5881C16.6834 15.9786 17.3166 15.9786 17.7071 15.5881L17 14.881ZM15.7071 12.1739C15.3166 11.7834 14.6834 11.7834 14.2929 12.1739C13.9024 12.5644 13.9024 13.1976 14.2929 13.5881L15.7071 12.1739ZM20.2929 10.1739L16.2929 14.1739L17.7071 15.5881L21.7071 11.5881L20.2929 10.1739ZM17.7071 14.1739L15.7071 12.1739L14.2929 13.5881L16.2929 15.5881L17.7071 14.1739Z" fill="#AAABAE"/>
    <path d="M9 12.881C11.2091 12.881 13 11.0901 13 8.88098C13 6.67184 11.2091 4.88098 9 4.88098C6.79086 4.88098 5 6.67184 5 8.88098C5 11.0901 6.79086 12.881 9 12.881Z" stroke="#AAABAE" stroke-width="2" stroke-linecap="round" stroke-linejoin="round"/>
</svg>
