<svg width="32" height="32" viewBox="0 0 32 32" fill="none" xmlns="http://www.w3.org/2000/svg">
<path d="M2.65625 29.4039L4.54126 22.5203C3.37851 20.5056 2.76691 18.2203 2.76776 15.879C2.77075 8.55447 8.73126 2.59546 16.0555 2.59546C19.6098 2.59695 22.946 3.98038 25.4547 6.4913C27.9633 9.00223 29.3444 12.3399 29.3431 15.8896C29.3399 23.2139 23.3785 29.1738 16.0555 29.1738C16.0551 29.1738 16.0558 29.1738 16.0555 29.1738H16.0498C13.826 29.1729 11.641 28.6152 9.70026 27.5567L2.65625 29.4039ZM10.0265 25.1519L10.43 25.391C12.1253 26.3971 14.0691 26.9293 16.0513 26.9303H16.0555C22.1425 26.9303 27.0969 21.9768 27.0994 15.8888C27.1005 12.9384 25.9529 10.1641 23.8677 8.07724C21.7824 5.99036 19.0097 4.84042 16.0596 4.83914C9.96771 4.83914 5.01358 9.79199 5.01123 15.8798C5.01038 17.9661 5.59399 19.9976 6.69971 21.7557L6.96246 22.1736L5.8465 26.2478L10.0265 25.1519Z" fill="#AAABAE"/>
<path d="M2.65625 29.4042L4.54126 22.5207C3.37851 20.506 2.76691 18.2206 2.76776 15.8793C2.77075 8.55484 8.73126 2.59583 16.0555 2.59583C19.6098 2.59732 22.946 3.98074 25.4547 6.49167C27.9633 9.00259 29.3444 12.3402 29.3431 15.89C29.3399 23.2143 23.3785 29.1742 16.0555 29.1742C16.0551 29.1742 16.0558 29.1742 16.0555 29.1742H16.0498C13.826 29.1733 11.641 28.6155 9.70026 27.557L2.65625 29.4042ZM10.0265 25.1523L10.43 25.3913C12.1253 26.3975 14.0691 26.9296 16.0513 26.9307H16.0555C22.1425 26.9307 27.0969 21.9772 27.0994 15.8892C27.1005 12.9388 25.9529 10.1645 23.8677 8.07761C21.7823 5.99072 19.0097 4.84079 16.0596 4.83951C9.96771 4.83951 5.01358 9.79236 5.01123 15.8802C5.01038 17.9664 5.59399 19.998 6.69971 21.7561L6.96246 22.174L5.8465 26.2482L10.0265 25.1523Z" fill="#AAABAE"/>
<path fill-rule="evenodd" clip-rule="evenodd" d="M12.7357 10.3256C12.487 9.77277 12.2251 9.76166 11.9884 9.75205C11.7949 9.74372 11.5734 9.74414 11.3523 9.74414C11.131 9.74414 10.7712 9.82746 10.467 10.1596C10.1626 10.4918 9.30469 11.295 9.30469 12.9286C9.30469 14.5624 10.4946 16.1409 10.6606 16.3626C10.8265 16.5841 12.9574 20.0436 16.332 21.3744C19.1367 22.4806 19.7073 22.2605 20.3161 22.2052C20.9249 22.1499 22.2804 21.402 22.557 20.6267C22.8339 19.8515 22.8339 19.1871 22.7508 19.0481C22.6677 18.9099 22.4463 18.8268 22.1144 18.6608C21.7824 18.4948 20.1501 17.6913 19.8457 17.5807C19.5413 17.4698 19.32 17.4147 19.0987 17.7471C18.8771 18.0791 18.2414 18.8268 18.0476 19.0481C17.8539 19.27 17.6601 19.2978 17.3282 19.1316C16.9962 18.9652 15.9268 18.6148 14.6583 17.4837C13.6714 16.6038 13.0049 15.5169 12.8111 15.1845C12.6176 14.8525 12.8079 14.6884 12.957 14.5071C13.2255 14.1805 13.6761 13.5932 13.7867 13.3719C13.8974 13.1502 13.842 12.9564 13.7592 12.7902C13.6761 12.6242 13.0307 10.9823 12.7357 10.3256Z" fill="#AAABAE"/>
</svg>
