<svg width="24" height="24" viewBox="0 0 24 24" fill="none" xmlns="http://www.w3.org/2000/svg">
<path d="M1.99219 22.0528L3.40594 16.8902C2.53388 15.3792 2.07518 13.6651 2.07582 11.9092C2.07806 6.41579 6.54845 1.94653 12.0417 1.94653C14.7074 1.94765 17.2095 2.98522 19.0911 4.86842C20.9725 6.75161 22.0083 9.25484 22.0073 11.9172C22.0049 17.4104 17.5339 21.8803 12.0417 21.8803C12.0413 21.8803 12.0418 21.8803 12.0417 21.8803H12.0373C10.3695 21.8796 8.73077 21.4613 7.27519 20.6674L1.99219 22.0528ZM7.51984 18.8639L7.82249 19.0432C9.09398 19.7978 10.5518 20.1969 12.0385 20.1977H12.0417C16.6069 20.1977 20.3226 16.4826 20.3246 11.9165C20.3254 9.70377 19.4647 7.62303 17.9008 6.05787C16.3368 4.49271 14.2573 3.63026 12.0447 3.6293C7.47578 3.6293 3.76019 7.34393 3.75842 11.9098C3.75778 13.4745 4.1955 14.9982 5.02478 16.3167L5.22185 16.6301L4.38487 19.6858L7.51984 18.8639Z" fill="#AAABAE"/>
<path d="M1.99219 22.0531L3.40594 16.8904C2.53388 15.3794 2.07518 13.6654 2.07582 11.9094C2.07806 6.41604 6.54845 1.94678 12.0417 1.94678C14.7074 1.9479 17.2095 2.98547 19.0911 4.86866C20.9725 6.75185 22.0083 9.25509 22.0073 11.9174C22.0049 17.4106 17.5339 21.8805 12.0417 21.8805C12.0413 21.8805 12.0418 21.8805 12.0417 21.8805H12.0373C10.3695 21.8799 8.73077 21.4616 7.27519 20.6677L1.99219 22.0531ZM7.51984 18.8641L7.82249 19.0434C9.09398 19.798 10.5518 20.1971 12.0385 20.1979H12.0417C16.6069 20.1979 20.3226 16.4828 20.3246 11.9168C20.3254 9.70402 19.4647 7.62328 17.9008 6.05811C16.3368 4.49295 14.2573 3.6305 12.0447 3.62954C7.47578 3.62954 3.76019 7.34418 3.75842 11.91C3.75778 13.4747 4.1955 14.9984 5.02478 16.317L5.22185 16.6304L4.38487 19.686L7.51984 18.8641Z" fill="#AAABAE"/>
<path fill-rule="evenodd" clip-rule="evenodd" d="M9.54981 7.74422C9.36332 7.32958 9.16689 7.32125 8.98937 7.31404C8.84422 7.30779 8.67807 7.30811 8.51225 7.30811C8.34626 7.30811 8.07645 7.37059 7.8483 7.61973C7.62 7.86887 6.97656 8.47129 6.97656 9.69647C6.97656 10.9218 7.86897 12.1057 7.99346 12.272C8.11795 12.4381 9.71612 15.0327 12.2471 16.0308C14.3506 16.8604 14.7785 16.6954 15.2351 16.6539C15.6917 16.6124 16.7083 16.0515 16.9158 15.4701C17.1234 14.8886 17.1234 14.3904 17.0611 14.2861C16.9988 14.1824 16.8328 14.1201 16.5838 13.9956C16.3349 13.8711 15.1106 13.2685 14.8823 13.1855C14.654 13.1024 14.488 13.061 14.322 13.3103C14.1559 13.5593 13.6791 14.1201 13.5338 14.2861C13.3885 14.4525 13.2431 14.4733 12.9942 14.3487C12.7452 14.2239 11.9431 13.9611 10.9918 13.1128C10.2516 12.4528 9.75169 11.6377 9.60637 11.3884C9.46121 11.1394 9.60397 11.0163 9.7158 10.8803C9.91719 10.6353 10.2551 10.1949 10.3381 10.0289C10.4211 9.86261 10.3796 9.7173 10.3174 9.59265C10.2551 9.46816 9.77107 8.23673 9.54981 7.74422V7.74422Z" fill="#AAABAE"/>
</svg>
