<svg width="366" height="144" viewBox="0 0 366 144" fill="none" xmlns="http://www.w3.org/2000/svg">
<g clip-path="url(#clip0_3012_102547)">
<rect width="366" height="144" rx="12" fill="#FBC91B"/>
<g opacity="0.2" clip-path="url(#clip1_3012_102547)">
<path d="M286.5 82.5001C280.701 76.7011 280.701 67.2991 286.5 61.5001C292.299 55.7011 301.701 55.7011 307.5 61.5001L349.5 103.5C355.299 109.299 355.299 118.701 349.5 124.5C343.701 130.299 334.299 130.299 328.5 124.5L286.5 82.5001Z" fill="white"/>
<path d="M349.5 124.5C343.701 130.299 334.299 130.299 328.5 124.5C322.701 118.701 322.701 109.299 328.5 103.5L370.5 61.5C376.299 55.701 385.701 55.701 391.5 61.4999C397.299 67.2989 397.299 76.7009 391.5 82.4999L349.5 124.5Z" fill="white"/>
<path d="M338.962 48.2018C347.928 48.2018 355.197 40.9331 355.197 31.9667C355.197 23.0002 347.928 15.7315 338.962 15.7315C329.995 15.7315 322.727 23.0002 322.727 31.9667C322.727 40.9331 329.995 48.2018 338.962 48.2018Z" fill="white"/>
</g>
<path d="M43.76 27.056L39.608 44H35.432L32.264 31.712L29.072 44H24.92L20.768 27.056H24.44L27.032 40.184L30.392 27.056H34.112L37.496 40.184L40.088 27.056H43.76ZM53.5391 30.512C55.0751 30.512 56.2991 31.016 57.2111 32.024C58.1231 33.032 58.5791 34.448 58.5791 36.272V44H55.2191V36.656C55.2191 35.6 54.9471 34.784 54.4031 34.208C53.8591 33.616 53.1151 33.32 52.1711 33.32C51.2111 33.32 50.4431 33.632 49.8671 34.256C49.2911 34.88 49.0031 35.776 49.0031 36.944V44H45.6191V26.24H49.0031V33.368C49.3551 32.472 49.9311 31.776 50.7311 31.28C51.5471 30.768 52.4831 30.512 53.5391 30.512ZM63.3806 30.704L67.0046 39.728L70.3646 30.704H74.0846L65.9486 50.336H62.2046L65.2046 43.616L59.6126 30.704H63.3806ZM89.6172 27.056V39.008C89.6172 40.64 89.1612 41.912 88.2492 42.824C87.3532 43.72 86.1052 44.168 84.5052 44.168C82.7772 44.168 81.4092 43.672 80.4012 42.68C79.3932 41.688 78.8892 40.272 78.8892 38.432H82.2252C82.2252 39.296 82.4012 39.96 82.7532 40.424C83.1212 40.888 83.6572 41.12 84.3612 41.12C85.0012 41.12 85.4732 40.936 85.7772 40.568C86.0812 40.184 86.2332 39.664 86.2332 39.008V27.056H89.6172ZM98.2672 30.536C99.5632 30.536 100.723 30.808 101.747 31.352C102.787 31.896 103.603 32.688 104.195 33.728C104.787 34.752 105.083 35.96 105.083 37.352C105.083 38.744 104.787 39.952 104.195 40.976C103.603 42 102.787 42.792 101.747 43.352C100.723 43.896 99.5632 44.168 98.2672 44.168C96.9712 44.168 95.8032 43.896 94.7632 43.352C93.7392 42.792 92.9312 42 92.3392 40.976C91.7472 39.952 91.4512 38.744 91.4512 37.352C91.4512 35.96 91.7472 34.752 92.3392 33.728C92.9312 32.688 93.7392 31.896 94.7632 31.352C95.8032 30.808 96.9712 30.536 98.2672 30.536ZM98.2672 33.464C97.3232 33.464 96.5232 33.8 95.8672 34.472C95.2112 35.128 94.8832 36.088 94.8832 37.352C94.8832 38.616 95.2112 39.584 95.8672 40.256C96.5232 40.912 97.3232 41.24 98.2672 41.24C99.2112 41.24 100.011 40.912 100.667 40.256C101.323 39.584 101.651 38.616 101.651 37.352C101.651 36.088 101.323 35.128 100.667 34.472C100.011 33.8 99.2112 33.464 98.2672 33.464ZM106.635 26.888C106.635 26.344 106.827 25.904 107.211 25.568C107.595 25.216 108.099 25.04 108.723 25.04C109.347 25.04 109.851 25.216 110.235 25.568C110.619 25.904 110.811 26.344 110.811 26.888C110.811 27.416 110.619 27.856 110.235 28.208C109.851 28.544 109.347 28.712 108.723 28.712C108.099 28.712 107.595 28.544 107.211 28.208C106.827 27.856 106.635 27.416 106.635 26.888ZM110.403 30.704V44H107.019V30.704H110.403ZM120.928 30.512C122.464 30.512 123.688 31.016 124.6 32.024C125.512 33.032 125.968 34.448 125.968 36.272V44H122.608V36.656C122.608 35.6 122.336 34.784 121.792 34.208C121.248 33.616 120.504 33.32 119.56 33.32C118.6 33.32 117.832 33.632 117.256 34.256C116.68 34.88 116.392 35.776 116.392 36.944V44H113.008V30.704H116.392V33.368C116.744 32.472 117.32 31.776 118.12 31.28C118.936 30.768 119.872 30.512 120.928 30.512ZM29.192 58.888C31.304 58.888 33.056 59.432 34.448 60.52C35.84 61.608 36.76 63.088 37.208 64.96H33.656C33.288 64.048 32.712 63.328 31.928 62.8C31.16 62.272 30.232 62.008 29.144 62.008C28.248 62.008 27.44 62.232 26.72 62.68C26 63.128 25.44 63.768 25.04 64.6C24.64 65.432 24.44 66.408 24.44 67.528C24.44 68.632 24.64 69.6 25.04 70.432C25.44 71.264 26 71.904 26.72 72.352C27.44 72.8 28.248 73.024 29.144 73.024C30.232 73.024 31.16 72.76 31.928 72.232C32.712 71.704 33.288 70.984 33.656 70.072H37.208C36.76 71.944 35.84 73.424 34.448 74.512C33.056 75.6 31.304 76.144 29.192 76.144C27.576 76.144 26.144 75.784 24.896 75.064C23.664 74.328 22.704 73.304 22.016 71.992C21.344 70.68 21.008 69.192 21.008 67.528C21.008 65.848 21.344 64.352 22.016 63.04C22.704 61.728 23.664 60.712 24.896 59.992C26.128 59.256 27.56 58.888 29.192 58.888ZM45.4349 62.536C46.7309 62.536 47.8909 62.808 48.9149 63.352C49.9549 63.896 50.7709 64.688 51.3629 65.728C51.9549 66.752 52.2509 67.96 52.2509 69.352C52.2509 70.744 51.9549 71.952 51.3629 72.976C50.7709 74 49.9549 74.792 48.9149 75.352C47.8909 75.896 46.7309 76.168 45.4349 76.168C44.1389 76.168 42.9709 75.896 41.9309 75.352C40.9069 74.792 40.0989 74 39.5069 72.976C38.9149 71.952 38.6189 70.744 38.6189 69.352C38.6189 67.96 38.9149 66.752 39.5069 65.728C40.0989 64.688 40.9069 63.896 41.9309 63.352C42.9709 62.808 44.1389 62.536 45.4349 62.536ZM45.4349 65.464C44.4909 65.464 43.6909 65.8 43.0349 66.472C42.3789 67.128 42.0509 68.088 42.0509 69.352C42.0509 70.616 42.3789 71.584 43.0349 72.256C43.6909 72.912 44.4909 73.24 45.4349 73.24C46.3789 73.24 47.1789 72.912 47.8349 72.256C48.4909 71.584 48.8189 70.616 48.8189 69.352C48.8189 68.088 48.4909 67.128 47.8349 66.472C47.1789 65.8 46.3789 65.464 45.4349 65.464ZM71.1065 62.512C72.7225 62.512 73.9945 63.016 74.9225 64.024C75.8665 65.016 76.3385 66.432 76.3385 68.272V76H72.9785V68.656C72.9785 67.632 72.7145 66.848 72.1865 66.304C71.6745 65.744 70.9625 65.464 70.0505 65.464C69.1065 65.464 68.3545 65.76 67.7945 66.352C67.2345 66.944 66.9545 67.808 66.9545 68.944V76H63.5945V68.656C63.5945 67.632 63.3305 66.848 62.8025 66.304C62.2905 65.744 61.5785 65.464 60.6665 65.464C59.7225 65.464 58.9705 65.76 58.4105 66.352C57.8505 66.944 57.5705 67.808 57.5705 68.944V76H54.1865V62.704H57.5705V65.224C57.9225 64.36 58.4745 63.696 59.2265 63.232C59.9945 62.752 60.8825 62.512 61.8905 62.512C62.9625 62.512 63.8905 62.768 64.6745 63.28C65.4745 63.792 66.0745 64.528 66.4745 65.488C66.8905 64.576 67.5065 63.856 68.3225 63.328C69.1545 62.784 70.0825 62.512 71.1065 62.512ZM95.7755 62.512C97.3915 62.512 98.6635 63.016 99.5915 64.024C100.536 65.016 101.008 66.432 101.008 68.272V76H97.6475V68.656C97.6475 67.632 97.3835 66.848 96.8555 66.304C96.3435 65.744 95.6315 65.464 94.7195 65.464C93.7755 65.464 93.0235 65.76 92.4635 66.352C91.9035 66.944 91.6235 67.808 91.6235 68.944V76H88.2635V68.656C88.2635 67.632 87.9995 66.848 87.4715 66.304C86.9595 65.744 86.2475 65.464 85.3355 65.464C84.3915 65.464 83.6395 65.76 83.0795 66.352C82.5195 66.944 82.2395 67.808 82.2395 68.944V76H78.8555V62.704H82.2395V65.224C82.5915 64.36 83.1435 63.696 83.8955 63.232C84.6635 62.752 85.5515 62.512 86.5595 62.512C87.6315 62.512 88.5595 62.768 89.3435 63.28C90.1435 63.792 90.7435 64.528 91.1435 65.488C91.5595 64.576 92.1755 63.856 92.9915 63.328C93.8235 62.784 94.7515 62.512 95.7755 62.512ZM116.245 62.704V76H112.861V73.312C112.509 74.208 111.925 74.912 111.109 75.424C110.309 75.92 109.381 76.168 108.325 76.168C106.789 76.168 105.565 75.664 104.653 74.656C103.741 73.648 103.285 72.24 103.285 70.432V62.704H106.645V70.048C106.645 71.104 106.917 71.928 107.461 72.52C108.005 73.096 108.741 73.384 109.669 73.384C110.645 73.384 111.421 73.072 111.997 72.448C112.573 71.824 112.861 70.928 112.861 69.76V62.704H116.245ZM126.785 62.512C128.321 62.512 129.545 63.016 130.457 64.024C131.369 65.032 131.825 66.448 131.825 68.272V76H128.465V68.656C128.465 67.6 128.193 66.784 127.649 66.208C127.105 65.616 126.361 65.32 125.417 65.32C124.457 65.32 123.689 65.632 123.113 66.256C122.537 66.88 122.249 67.776 122.249 68.944V76H118.865V62.704H122.249V65.368C122.601 64.472 123.177 63.776 123.977 63.28C124.793 62.768 125.729 62.512 126.785 62.512ZM133.963 58.888C133.963 58.344 134.155 57.904 134.539 57.568C134.923 57.216 135.427 57.04 136.051 57.04C136.675 57.04 137.179 57.216 137.563 57.568C137.947 57.904 138.139 58.344 138.139 58.888C138.139 59.416 137.947 59.856 137.563 60.208C137.179 60.544 136.675 60.712 136.051 60.712C135.427 60.712 134.923 60.544 134.539 60.208C134.155 59.856 133.963 59.416 133.963 58.888ZM137.731 62.704V76H134.347V62.704H137.731ZM147.44 73.096V76H145.664C144.176 76 143.032 75.64 142.232 74.92C141.448 74.2 141.056 73 141.056 71.32V65.56H139.208V62.704H141.056V59.416H144.44V62.704H147.416V65.56H144.44V71.368C144.44 72.008 144.568 72.456 144.824 72.712C145.08 72.968 145.512 73.096 146.12 73.096H147.44ZM149.035 58.888C149.035 58.344 149.227 57.904 149.611 57.568C149.995 57.216 150.499 57.04 151.123 57.04C151.747 57.04 152.251 57.216 152.635 57.568C153.019 57.904 153.211 58.344 153.211 58.888C153.211 59.416 153.019 59.856 152.635 60.208C152.251 60.544 151.747 60.712 151.123 60.712C150.499 60.712 149.995 60.544 149.611 60.208C149.227 59.856 149.035 59.416 149.035 58.888ZM152.803 62.704V76H149.419V62.704H152.803ZM167.913 68.848C167.913 69.184 167.873 69.568 167.793 70H158.049C158.097 71.184 158.417 72.056 159.009 72.616C159.601 73.176 160.337 73.456 161.217 73.456C162.001 73.456 162.649 73.264 163.161 72.88C163.689 72.496 164.025 71.976 164.169 71.32H167.745C167.569 72.248 167.193 73.08 166.617 73.816C166.041 74.552 165.297 75.128 164.385 75.544C163.489 75.96 162.489 76.168 161.385 76.168C160.089 76.168 158.937 75.896 157.929 75.352C156.921 74.792 156.137 74 155.577 72.976C155.017 71.952 154.737 70.744 154.737 69.352C154.737 67.96 155.017 66.752 155.577 65.728C156.137 64.688 156.921 63.896 157.929 63.352C158.937 62.808 160.089 62.536 161.385 62.536C162.697 62.536 163.841 62.808 164.817 63.352C165.809 63.896 166.569 64.648 167.097 65.608C167.641 66.552 167.913 67.632 167.913 68.848ZM164.505 68.512C164.553 67.424 164.265 66.6 163.641 66.04C163.033 65.48 162.281 65.2 161.385 65.2C160.473 65.2 159.705 65.48 159.081 66.04C158.457 66.6 158.113 67.424 158.049 68.512H164.505ZM174.443 62.536C176.059 62.536 177.355 62.944 178.331 63.76C179.307 64.576 179.915 65.664 180.155 67.024H176.987C176.859 66.384 176.571 65.872 176.123 65.488C175.675 65.104 175.091 64.912 174.371 64.912C173.795 64.912 173.347 65.048 173.027 65.32C172.707 65.592 172.547 65.96 172.547 66.424C172.547 66.792 172.675 67.088 172.931 67.312C173.187 67.536 173.507 67.712 173.891 67.84C174.275 67.968 174.827 68.12 175.547 68.296C176.555 68.52 177.371 68.76 177.995 69.016C178.635 69.256 179.179 69.648 179.627 70.192C180.091 70.72 180.323 71.44 180.323 72.352C180.323 73.488 179.875 74.408 178.979 75.112C178.099 75.816 176.907 76.168 175.403 76.168C173.675 76.168 172.291 75.784 171.251 75.016C170.211 74.232 169.579 73.12 169.355 71.68H172.595C172.675 72.336 172.963 72.856 173.459 73.24C173.955 73.608 174.603 73.792 175.403 73.792C175.979 73.792 176.419 73.656 176.723 73.384C177.027 73.096 177.179 72.728 177.179 72.28C177.179 71.896 177.043 71.584 176.771 71.344C176.515 71.104 176.187 70.92 175.787 70.792C175.403 70.664 174.851 70.512 174.131 70.336C173.139 70.112 172.331 69.888 171.707 69.664C171.099 69.424 170.571 69.048 170.123 68.536C169.691 68.024 169.475 67.32 169.475 66.424C169.475 65.272 169.915 64.336 170.795 63.616C171.675 62.896 172.891 62.536 174.443 62.536ZM187.139 58.048C188.771 58.048 190.083 58.48 191.075 59.344C192.067 60.208 192.563 61.432 192.563 63.016C192.563 64.616 192.051 65.84 191.027 66.688C190.019 67.536 188.659 67.976 186.947 68.008V70.432H183.755V65.8H185.123C186.419 65.8 187.427 65.608 188.147 65.224C188.867 64.824 189.227 64.096 189.227 63.04C189.227 62.336 189.027 61.792 188.627 61.408C188.227 61.008 187.691 60.808 187.019 60.808C186.283 60.808 185.699 61.024 185.267 61.456C184.835 61.872 184.619 62.416 184.619 63.088H181.427C181.395 62.128 181.603 61.272 182.051 60.52C182.499 59.752 183.155 59.152 184.019 58.72C184.899 58.272 185.939 58.048 187.139 58.048ZM187.211 72.472V76H183.563V72.472H187.211Z" fill="#333333"/>
<path d="M20 108C20 99.1634 27.1634 92 36 92H86C94.8366 92 102 99.1634 102 108C102 116.837 94.8366 124 86 124H36C27.1634 124 20 116.837 20 108Z" fill="white"/>
<path d="M34.09 110.89H36.39V112H32.69V105.02H34.09V110.89ZM42.4298 109.11C42.4298 109.31 42.4165 109.49 42.3898 109.65H38.3398C38.3732 110.05 38.5132 110.363 38.7598 110.59C39.0065 110.817 39.3098 110.93 39.6698 110.93C40.1898 110.93 40.5598 110.707 40.7798 110.26H42.2898C42.1298 110.793 41.8232 111.233 41.3698 111.58C40.9165 111.92 40.3598 112.09 39.6998 112.09C39.1665 112.09 38.6865 111.973 38.2598 111.74C37.8398 111.5 37.5098 111.163 37.2698 110.73C37.0365 110.297 36.9198 109.797 36.9198 109.23C36.9198 108.657 37.0365 108.153 37.2698 107.72C37.5032 107.287 37.8298 106.953 38.2498 106.72C38.6698 106.487 39.1532 106.37 39.6998 106.37C40.2265 106.37 40.6965 106.483 41.1098 106.71C41.5298 106.937 41.8532 107.26 42.0798 107.68C42.3132 108.093 42.4298 108.57 42.4298 109.11ZM40.9798 108.71C40.9732 108.35 40.8432 108.063 40.5898 107.85C40.3365 107.63 40.0265 107.52 39.6598 107.52C39.3132 107.52 39.0198 107.627 38.7798 107.84C38.5465 108.047 38.4032 108.337 38.3498 108.71H40.9798ZM43.0917 109.21C43.0917 108.65 43.2017 108.153 43.4217 107.72C43.6484 107.287 43.9517 106.953 44.3317 106.72C44.7184 106.487 45.1484 106.37 45.6217 106.37C46.0351 106.37 46.3951 106.453 46.7017 106.62C47.0151 106.787 47.2651 106.997 47.4517 107.25V106.46H48.8617V112H47.4517V111.19C47.2717 111.45 47.0217 111.667 46.7017 111.84C46.3884 112.007 46.0251 112.09 45.6117 112.09C45.1451 112.09 44.7184 111.97 44.3317 111.73C43.9517 111.49 43.6484 111.153 43.4217 110.72C43.2017 110.28 43.0917 109.777 43.0917 109.21ZM47.4517 109.23C47.4517 108.89 47.3851 108.6 47.2517 108.36C47.1184 108.113 46.9384 107.927 46.7117 107.8C46.4851 107.667 46.2417 107.6 45.9817 107.6C45.7217 107.6 45.4817 107.663 45.2617 107.79C45.0417 107.917 44.8617 108.103 44.7217 108.35C44.5884 108.59 44.5217 108.877 44.5217 109.21C44.5217 109.543 44.5884 109.837 44.7217 110.09C44.8617 110.337 45.0417 110.527 45.2617 110.66C45.4884 110.793 45.7284 110.86 45.9817 110.86C46.2417 110.86 46.4851 110.797 46.7117 110.67C46.9384 110.537 47.1184 110.35 47.2517 110.11C47.3851 109.863 47.4517 109.57 47.4517 109.23ZM51.6291 107.32C51.8091 107.027 52.0424 106.797 52.3291 106.63C52.6224 106.463 52.9557 106.38 53.3291 106.38V107.85H52.9591C52.5191 107.85 52.1857 107.953 51.9591 108.16C51.7391 108.367 51.6291 108.727 51.6291 109.24V112H50.2291V106.46H51.6291V107.32ZM57.342 106.38C58.002 106.38 58.5354 106.59 58.942 107.01C59.3487 107.423 59.552 108.003 59.552 108.75V112H58.152V108.94C58.152 108.5 58.042 108.163 57.822 107.93C57.602 107.69 57.302 107.57 56.922 107.57C56.5354 107.57 56.2287 107.69 56.002 107.93C55.782 108.163 55.672 108.5 55.672 108.94V112H54.272V106.46H55.672V107.15C55.8587 106.91 56.0954 106.723 56.382 106.59C56.6754 106.45 56.9954 106.38 57.342 106.38ZM70.1462 106.38C70.8262 106.38 71.3728 106.59 71.7862 107.01C72.2062 107.423 72.4162 108.003 72.4162 108.75V112H71.0162V108.94C71.0162 108.507 70.9062 108.177 70.6862 107.95C70.4662 107.717 70.1662 107.6 69.7862 107.6C69.4062 107.6 69.1028 107.717 68.8762 107.95C68.6562 108.177 68.5462 108.507 68.5462 108.94V112H67.1462V108.94C67.1462 108.507 67.0362 108.177 66.8162 107.95C66.5962 107.717 66.2962 107.6 65.9162 107.6C65.5295 107.6 65.2228 107.717 64.9962 107.95C64.7762 108.177 64.6662 108.507 64.6662 108.94V112H63.2662V106.46H64.6662V107.13C64.8462 106.897 65.0762 106.713 65.3562 106.58C65.6428 106.447 65.9562 106.38 66.2962 106.38C66.7295 106.38 67.1162 106.473 67.4562 106.66C67.7962 106.84 68.0595 107.1 68.2462 107.44C68.4262 107.12 68.6862 106.863 69.0262 106.67C69.3728 106.477 69.7462 106.38 70.1462 106.38ZM76.2047 112.09C75.6714 112.09 75.1914 111.973 74.7647 111.74C74.338 111.5 74.0014 111.163 73.7547 110.73C73.5147 110.297 73.3947 109.797 73.3947 109.23C73.3947 108.663 73.518 108.163 73.7647 107.73C74.018 107.297 74.3614 106.963 74.7947 106.73C75.228 106.49 75.7114 106.37 76.2447 106.37C76.778 106.37 77.2614 106.49 77.6947 106.73C78.128 106.963 78.468 107.297 78.7147 107.73C78.968 108.163 79.0947 108.663 79.0947 109.23C79.0947 109.797 78.9647 110.297 78.7047 110.73C78.4514 111.163 78.1047 111.5 77.6647 111.74C77.2314 111.973 76.7447 112.09 76.2047 112.09ZM76.2047 110.87C76.458 110.87 76.6947 110.81 76.9147 110.69C77.1414 110.563 77.3214 110.377 77.4547 110.13C77.588 109.883 77.6547 109.583 77.6547 109.23C77.6547 108.703 77.5147 108.3 77.2347 108.02C76.9614 107.733 76.6247 107.59 76.2247 107.59C75.8247 107.59 75.488 107.733 75.2147 108.02C74.948 108.3 74.8147 108.703 74.8147 109.23C74.8147 109.757 74.9447 110.163 75.2047 110.45C75.4714 110.73 75.8047 110.87 76.2047 110.87ZM81.5216 107.32C81.7016 107.027 81.935 106.797 82.2216 106.63C82.515 106.463 82.8483 106.38 83.2216 106.38V107.85H82.8516C82.4116 107.85 82.0783 107.953 81.8516 108.16C81.6316 108.367 81.5216 108.727 81.5216 109.24V112H80.1216V106.46H81.5216V107.32ZM89.3146 109.11C89.3146 109.31 89.3013 109.49 89.2746 109.65H85.2246C85.2579 110.05 85.3979 110.363 85.6446 110.59C85.8913 110.817 86.1946 110.93 86.5546 110.93C87.0746 110.93 87.4446 110.707 87.6646 110.26H89.1746C89.0146 110.793 88.7079 111.233 88.2546 111.58C87.8013 111.92 87.2446 112.09 86.5846 112.09C86.0513 112.09 85.5713 111.973 85.1446 111.74C84.7246 111.5 84.3946 111.163 84.1546 110.73C83.9213 110.297 83.8046 109.797 83.8046 109.23C83.8046 108.657 83.9213 108.153 84.1546 107.72C84.3879 107.287 84.7146 106.953 85.1346 106.72C85.5546 106.487 86.0379 106.37 86.5846 106.37C87.1113 106.37 87.5813 106.483 87.9946 106.71C88.4146 106.937 88.7379 107.26 88.9646 107.68C89.1979 108.093 89.3146 108.57 89.3146 109.11ZM87.8646 108.71C87.8579 108.35 87.7279 108.063 87.4746 107.85C87.2213 107.63 86.9113 107.52 86.5446 107.52C86.1979 107.52 85.9046 107.627 85.6646 107.84C85.4313 108.047 85.2879 108.337 85.2346 108.71H87.8646Z" fill="#191C1E"/>
</g>
<defs>
<clipPath id="clip0_3012_102547">
<rect width="366" height="144" rx="12" fill="white"/>
</clipPath>
<clipPath id="clip1_3012_102547">
<rect width="126" height="126" fill="white" transform="translate(276 9)"/>
</clipPath>
</defs>
</svg>
