<svg width="77" height="80" viewBox="0 0 77 80" fill="none" xmlns="http://www.w3.org/2000/svg">
    <g opacity="0.2" clip-path="url(#clip0_3012_215570)">
        <path d="M6.66931 46.6667C2.98741 42.9848 2.9874 37.0153 6.66929 33.3334C10.3512 29.6515 16.3207 29.6515 20.0026 33.3334L46.6693 60.0001C50.3512 63.682 50.3512 69.6515 46.6693 73.3334C42.9874 77.0153 37.0179 77.0153 33.336 73.3334L6.66931 46.6667Z" fill="white"/>
        <path d="M46.664 73.3333C42.9821 77.0152 37.0126 77.0152 33.3307 73.3333C29.6488 69.6514 29.6488 63.6819 33.3307 60L59.9974 33.3333C63.6793 29.6514 69.6488 29.6514 73.3307 33.3333C77.0126 37.0152 77.0126 42.9847 73.3307 46.6666L46.664 73.3333Z" fill="white"/>
        <path d="M39.9721 24.89C45.6651 24.89 50.2802 20.275 50.2802 14.582C50.2802 8.889 45.6651 4.27393 39.9721 4.27393C34.2791 4.27393 29.6641 8.889 29.6641 14.582C29.6641 20.275 34.2791 24.89 39.9721 24.89Z" fill="white"/>
    </g>
    <defs>
        <clipPath id="clip0_3012_215570">
            <rect width="80" height="80" fill="white"/>
        </clipPath>
    </defs>
</svg>